<svg width="44" height="44" fill="none" xmlns="http://www.w3.org/2000/svg"><path d="M34.833 3.667a5.493 5.493 0 00-5.5 5.5c0 3.043 2.457 5.5 5.5 5.5 3.044 0 5.5-2.457 5.5-5.5 0-.66-.11-1.284-.33-1.852m-27.518 20.06c-.642-2.016.11-4.528 2.237-5.206 1.118-.367 2.493-.055 3.281 1.026.734-1.118 2.164-1.375 3.264-1.026 2.126.678 2.878 3.19 2.236 5.206-1.008 3.209-4.528 4.877-5.5 4.877-.99-.018-4.473-1.65-5.518-4.877v0z" stroke="#252525" stroke-width="2.5" stroke-linecap="round" stroke-linejoin="round"/><path d="M3.667 27.445v.055c0 9.167 3.666 12.833 12.833 12.833h11c9.167 0 12.833-3.666 12.833-12.833v-9.167M25.667 3.667H16.5C7.333 3.667 3.667 7.333 3.667 16.5v3.667" stroke="#FFD51F" stroke-width="2.5" stroke-linecap="round" stroke-linejoin="round"/></svg>