<svg width="44" height="44" fill="none" xmlns="http://www.w3.org/2000/svg"><path d="M24.75 16.5h-5.5c-3.025 0-5.5 2.475-5.5 5.5v5.5c0 3.025 2.475 5.5 5.5 5.5h5.5c3.025 0 5.5-2.475 5.5-5.5V22M22 16.5V33m-8.25-8.25h16.5" stroke="#252525" stroke-width="2.5" stroke-linecap="round" stroke-linejoin="round"/><path d="M40.333 19.246c0-2.218-1.485-5.06-3.3-6.325l-11.33-7.938c-2.566-1.797-6.691-1.705-9.166.22l-9.882 7.7c-1.65 1.283-2.988 4.015-2.988 6.087v13.585c0 4.253 3.465 7.736 7.718 7.736h21.23c4.253 0 7.718-3.483 7.718-7.718V26.91" stroke="#FFD51F" stroke-width="2.5" stroke-linecap="round" stroke-linejoin="round"/></svg>