<svg xmlns="http://www.w3.org/2000/svg" viewBox="0 0 400 400" shape-rendering="geometricPrecision" text-rendering="geometricPrecision"><path d="M140.392 164.208c-5.12-.25-10.24-.5-15.513-.577a198.712 198.712 0 00-8.094.04c-8.213.213-16.943 1.02-25.91 3.724s-18.174 7.309-25.92 16.436-14.029 22.776-10.745 37.966c3.082 14.261 14.598 29.88 37.304 30.21a53.23 53.23 0 004.58-.136c25.75-1.846 64.398-22.27 93.696-22.115.192 0 .383.003.574.005 28.985.42 48.76 20.9 62.174 23.332.877.16 1.727.241 2.554.253 11.895.172 18.905-14.136 31.828-21.235 13.821-7.592 34.405-6.937 49.792-8.436 15.387-1.499 25.578-5.152 33.298-10.948s12.969-13.737 16.56-20.986c3.59-7.248 5.523-13.806 2.162-23.91s-12.015-23.758-22.163-31.56c-10.147-7.804-21.788-9.757-33.305-10.276a127.714 127.714 0 00-3.895-.117c-10.275-.15-21.071 1.028-37.274 5.079-18.258 4.565-43.38 12.78-59.414 15.182-3.284.492-6.188.74-8.825.702-10.24-.148-16.485-4.612-25.533-15.874-11.379-14.164-27.192-39.082-47.407-57.816-20.215-18.734-44.831-31.285-65.518-33.135a62.024 62.024 0 00-4.628-.241c-18.56-.27-33.626 7.917-43.534 16.164-10.719 8.922-15.401 17.915-17.408 25.716s-1.34 14.409.4 20.893 4.552 12.845 11.354 19.288c6.801 6.443 17.593 12.97 26.233 17.386s15.131 6.725 28.535 10.538c13.405 3.812 33.723 9.13 54.042 14.448z" fill="#ffd51f"/><path d="M111.322 251.576c-2.327.046-6.6.46-10.677.341a48.472 48.472 0 01-11.803-1.827c-3.796-1.072-7.457-2.531-10.954-4.325s-6.827-3.817-11.475-7.46-9.323-9.24-12.11-15.252c-2.787-6.012-3.826-12.227-3.458-18.371s2.128-12.04 5.338-17.329 7.806-9.69 12.361-12.407 8.377-4.356 12.454-5.728c4.077-1.372 8.335-2.45 12.684-3.208s8.726-1.186 13.068-1.275 8.63.12 11.736.745 3.107.624 1.073.052c0 0-3.958-1.611-8.252-2.81-4.294-1.199-8.852-1.796-13.53-1.88s-9.383.305-14.018 1.108c-4.635.802-9.123 1.997-13.456 3.593s-11.224 5.435-16.759 10.985-9.364 12.34-11.345 19.891-1.738 15.489.711 23.204c2.45 7.716 7.077 14.804 13.846 20.666s10.589 8.028 14.47 9.834a66.047 66.047 0 0012.197 4.308c4.235 1.033 8.582 1.56 12.983 1.416s8.779-1.029 10.834-2.107c4.204-1.804 1.935-1.437 4.082-2.164z" fill="#242424"/><path d="M176.818 187.77c-.943-1.363-3.42-3.615-6.278-5.8s-6.072-4.31-9.607-6.421-7.393-4.193-11.55-6.287c-4.157-2.094-8.618-4.186-11.794-5.568s-5.367-2.172-8.412-3.144c-3.045-.971-6.97-2.131-11.779-3.518s-10.515-2.974-17.123-4.753-14.147-3.647-19.344-4.939c-5.197-1.292-7.393-1.91-9.51-2.574a130.879 130.879 0 01-6.133-2.096c-1.973-.728-3.88-1.473-5.724-2.222s-3.633-1.494-6.13-2.568a122.867 122.867 0 01-8.413-4.023c-2.84-1.5-5.445-3.044-7.823-4.628s-4.534-3.203-6.475-4.85-3.673-3.32-5.714-5.643-4.246-5.408-6.008-8.64-3.056-6.575-3.855-9.984-1.084-6.858-.827-10.32 1.084-6.924 2.54-10.5 3.47-7.353 5.987-11.12c2.517-3.767 5.551-7.408 9.12-10.785s7.689-6.384 12.388-8.894 10.01-4.422 16.402-5.693 13.453-1.784 20.495-1.485 13.985 1.35 20.729 3.076a107.994 107.994 0 0119.281 6.932c6.076 2.867 11.682 6.192 16.846 10.022s10.516 8.732 16.28 14.696c5.764 5.964 11.968 12.806 18.668 20.298 6.7 7.492 13.948 15.454 21.817 23.665 7.868 8.21 16.544 16.357 24.508 22.954s14.658 10.96 21.198 14.22 12.857 5.51 18.844 6.895 11.574 2.007 16.667 1.965c5.092-.043 9.606-.708 12.675-1.168 3.07-.46 3.07-.46 1.017-.315 0 0-4.126-.191-8.7-.804a111.085 111.085 0 01-14.818-2.997c-5.283-1.455-10.83-3.553-16.566-6.441s-11.62-6.657-17.585-11.464-14.586-13.003-22.661-21.17c-8.076-8.168-15.613-16.204-22.622-23.967s-13.555-15.09-19.723-21.777-12.037-12.572-17.718-17.45c-5.681-4.877-11.444-8.82-17.729-12.282s-13.036-6.395-20.163-8.719-14.557-3.97-22.195-4.85c-7.637-.88-15.406-.92-23.204-.028-7.799.891-14.436 2.559-20.38 5.027s-11.194 5.606-15.76 9.246c-4.566 3.64-8.47 7.651-11.745 11.875s-5.948 8.538-8.065 12.825-3.664 8.635-4.48 13.08-.908 8.879-.33 13.236c.579 4.356 1.785 8.587 3.562 12.642 1.777 4.054 4.083 7.898 6.845 11.464 2.762 3.567 4.697 5.611 6.79 7.547a73.584 73.584 0 006.914 5.625c2.515 1.814 5.246 3.564 8.197 5.247s6.126 3.296 9.51 4.83a201.288 201.288 0 007.037 3.056 243.1 243.1 0 005.82 2.323c2.03.78 4.155 1.547 6.375 2.289a123.9 123.9 0 006.953 2.096c2.413.65 10.56 2.655 17.802 4.386 7.243 1.73 13.597 3.18 19.043 4.43 5.446 1.25 9.987 2.282 13.605 3.15s6.298 1.574 8.002 2.067c1.703.493 6.417 2.21 10.858 3.892s8.595 3.332 12.455 4.972 7.44 3.252 10.742 4.849 6.344 3.172 7.938 3.742c2.832 1.529 1.795.31 3.033 1.269z" fill="#242424"/><path d="M243.102 141.14c4.354-.648 12.528-3.251 20.749-5.739 8.22-2.487 16.54-4.6 24.959-6.178 8.418-1.578 16.938-2.512 25.571-2.627s17.394.677 24.942 2.188 13.48 3.69 18.868 6.698c5.387 3.007 10.122 6.7 14.07 10.883 3.946 4.184 7.003 8.69 9.059 13.298 2.056 4.607 3.05 9.137 3.018 13.657-.031 4.52-.8 9.064-2.227 13.38s-3.518 8.348-6.29 12.038-6.245 6.99-10.464 9.83-9.225 5.161-12.462 6.253c-3.238 1.093-4.734 1.505-7.057 2.144-2.323.64-5.458 1.54-9.422 2.642-3.964 1.103-8.756 2.426-14.376 3.985a3695.429 3695.429 0 00-16.741 4.67c-4.67 1.322-6.892 2.055-8.945 2.85-2.053.797-3.942 1.64-5.678 2.491s-3.324 1.699-4.759 2.542c-1.435.843-2.73 1.65-5.01 3.183s-5.484 3.966-8.394 6.602-5.456 5.474-7.561 8.486-3.663 6.2-4.584 9.496-1.093 6.643-1.088 9.118.004 2.476.11.84c0 0 .54-3.23 1.783-6.151s2.88-5.623 4.919-8.144 4.439-4.89 7.165-7.102c2.727-2.212 5.738-4.26 8.984-6.161s4.401-2.494 5.705-3.142a82.851 82.851 0 014.253-1.95c1.53-.656 3.184-1.29 4.97-1.879s3.7-1.146 5.766-1.642 9.184-1.987 15.465-3.358c6.28-1.37 11.711-2.597 16.3-3.666 4.588-1.068 8.338-1.975 11.263-2.69 2.926-.715 5.022-1.28 6.434-1.678s7.748-2.599 13.486-5.627 10.647-6.747 14.708-11.054 7.263-9.107 9.607-14.284c2.345-5.178 3.843-10.637 4.518-16.322s.306-11.711-1.46-17.724c-1.765-6.012-4.763-11.764-8.827-17.106s-9.086-10.148-14.941-14.25-12.452-7.354-19.66-9.542c-7.207-2.188-16.944-3.45-26.411-3.534-9.468-.085-18.644.883-27.516 2.708s-17.434 4.387-25.68 7.555c-8.247 3.168-16.176 6.83-19.778 9.384-7.495 4.281-3.45 2.903-7.34 4.628z" fill="#242424"/><path d="M304.903 213.916c-2.384.122-6.998 1.634-11.603 3.823-4.605 2.188-9.051 4.86-12.773 8.252-3.722 3.392-6.857 6.916-9.255 10.332s-3.916 6.526-4.795 8.464-.88 1.939-.227.687c0 0 1.502-2.383 4.074-4.89s5.774-5.232 9.47-8.015 7.676-5.586 11.567-8.612 7.884-5.754 9.734-7.313c3.953-2.332 1.704-1.954 3.808-2.728zM122.301 64.77c-1.506-1.09-4.88-2.652-8.551-4.043-3.672-1.39-7.623-2.638-11.844-3.735-4.221-1.098-8.702-2.067-12.742-2.684-4.04-.617-7.266-.822-10.492-.841-3.226-.019-6.45.16-9.632.695s-6.286 1.461-10.49 3.036-9.34 4.278-13.921 7.769c-4.582 3.49-8.554 7.762-11.866 12.778s-5.907 10.761-7.954 15.168-2.046 4.407-.504 1.575c0 0 3.617-5.35 7.712-9.661s8.22-7.868 12.488-10.65c4.267-2.782 8.677-4.868 13.412-6.26s7.483-1.944 10.259-2.38c2.776-.435 5.512-1.023 8.291-1.462 2.779-.438 5.603-.785 8.423-.93s7.302.004 11.654.236 8.481.564 12.409.934c3.927.369 7.66.793 9.548.737 3.556.479 2.133-.818 3.8-.283zm156.805 111.473c-.11-.035-.324-.069-.525-.104-.202-.036-.392-.072-.57-.11s-.345-.076-.878-.22-1.443-.374-2.341-.583-1.785-.4-2.658-.575-1.734-.319-2.343-.433c-.608-.114-.996-.197-1.364-.274s-.715-.153-1.042-.228c-.326-.074-.632-.146-1.133-.264s-1.24-.335-2.115-.614-1.883-.624-3.02-1.039c-1.135-.414-2.403-.881-3.494-1.208s-2.055-.595-3.208-.973-2.49-.854-4.02-1.403c-1.53-.55-3.24-1.191-4.294-1.582s-1.473-.545-2.3-.888-2.022-.862-3.595-1.532-3.528-1.477-5.059-2.353-1.53-.875-.534-.253c0 0 1.922 1.36 3.425 2.652 1.503 1.293 2.722 2.305 3.658 3.043s1.59 1.22 1.945 1.444c.355.223 2.01 1.287 3.543 2.23 1.532.941 2.925 1.754 4.19 2.42s2.39 1.228 3.38 1.697c.99.47 2.466.818 3.798 1.102 1.332.283 2.541.504 3.626.676s2.05.285 2.877.347 1.147.085 1.504.105a33.617 33.617 0 002.35.033c.433-.009 1.297-.05 2.16-.082s1.748-.08 2.649-.123 1.82-.095 2.76-.152c.938-.057 1.124-.071 1.31-.091s.379-.044.581-.073.414-.063.523-.1c.22-.038.103-.49.214-.492zm17.364-38.341c1.328.075 3.876-.116 6.41-.247s5.071-.165 7.612-.106c2.54.06 5.093.23 7.66.523a75.28 75.28 0 017.747 1.28c2.596.574 5.515.865 8.654 1.48s6.408 1.412 9.709 2.287 6.527 1.827 9.582 2.803c3.054.977 5.839 1.988 7.59 3.007s1.75 1.019.608.297c0 0-2.208-1.57-4.688-3.428-2.48-1.858-5.322-3.656-8.409-5.306s-6.306-3.153-9.554-4.434c-3.248-1.281-6.431-2.322-9.453-2.998s-5.923-.844-8.753-.868-5.602.147-8.313.478c-2.71.331-5.356.814-7.927 1.482s-5.06 1.513-6.223 2.206c-2.393 1.026-1.023 1.21-2.252 1.544zM58.992 199.866c-.282 1-.506 3.266-.586 5.861a51.63 51.63 0 00.431 8.337c.387 2.921 1.097 5.848 2.224 8.66s2.755 5.409 5.003 7.3c2.247 1.892 4.673 3.358 7.211 4.631s5.154 2.325 7.758 3.188 5.146 1.52 7.538 1.991c2.392.473 4.563.793 5.982 1.194 1.418.402 1.418.402.476.123 0 0-1.874-.592-3.88-1.64s-4.163-2.235-6.403-3.527-4.505-2.66-6.688-4.143c-2.183-1.483-4.243-3.022-6.032-4.633s-3.206-3.223-4.56-5.069c-1.355-1.845-2.53-4.083-3.503-6.566s-1.758-5.083-2.41-7.636-1.19-4.94-1.596-6.026c-.447-2.066-.924-1.065-.965-2.045zm49.732-98.405c.36.11 1.149.307 2.048.66s1.914.858 3.051 1.502c1.138.644 2.4 1.432 4.04 2.61s3.651 2.73 5.651 4.262c2 1.532 3.97 3.076 5.911 4.627s4.063 2.818 5.686 3.815 3.042 2.036 4.886 3.62c1.845 1.583 4.08 3.688 6.768 6.24s5.825 5.548 8.097 8.243c2.273 2.695 2.273 2.695.87.814 0 0-2.476-4.013-4.524-7.633s-3.955-6.64-5.714-9.075-3.327-4.348-4.731-5.732c-1.404-1.385-3.388-3.004-5.49-4.43-2.1-1.425-4.338-2.664-6.612-3.856a164.424 164.424 0 00-6.95-3.45c-2.372-1.105-4.054-1.684-5.525-2.103s-2.798-.693-3.975-.83-2.198-.145-2.666-.043c-.849.117-.44.742-.82.76z" fill="#c49810"/><path d="M139.924 204.606c4.536 1.244 9.054 7.594 12.04 16.925 2.14 6.714 3.282 14.11 3.425 22.035.095 5.258-.173 7.621-1.188 10.768-1.459 4.498-3.8 7.529-8.835 11.454-2.353 1.83-3.226 2.663-3.593 3.446-.267.543-.28.72-.284 4.6-.01 9.14.494 21.236 1.354 32.284.361 4.512.76 8.823 1.686 17.887 1.3 12.742 1.487 14.853 1.709 20.137.147 3.729.017 7.559-.366 10.503-.242 1.832-.852 4.903-1.208 5.965-1.141 3.462-3.494 5.443-6.503 5.453-1.858-.003-3.298-.61-4.674-2.003-1.376-1.379-2.031-3.035-2.57-6.512-.515-3.325-.577-4.336-.559-9.922.02-6.295.085-7.357 1.467-22.372 1.587-17.275 2.023-23.292 2.503-34.25.221-5.106.528-19.098.44-20.527-.099-1.756-.869-2.705-3.799-4.706-3.03-2.063-4.723-3.455-5.947-4.923-2.436-2.91-3.772-6.109-4.45-10.571-.451-2.971-.228-11.01.423-16.065 1.9-14.546 7.208-25.663 13.784-28.904 1.872-.92 3.515-1.146 5.145-.702zm63.69 1.356c.87 1.96 1.909 11.252 2.565 22.906.397 7.116.482 10.124.474 16.748.006 5.89-.033 7.115-.224 8.43-.268 1.858-.686 3.26-1.434 4.751-.735 1.453-1.203 2.135-3.304 4.774-1.899 2.386-2.658 3.498-3.203 4.723-.938 2.072-1.155 3.993-.906 7.533.087 1.137.574 6.51 1.086 11.932 1.886 20.012 2.347 25.637 2.905 35.142.509 8.57.57 10.492.56 19.023-.01 9.24-.114 11.237-.776 15.875-.6 4.132-1.258 5.914-2.726 7.379-.455.455-1.113.984-1.467 1.161-3.731 1.98-8.241-.288-9.626-4.84-.303-.986-.83-4.095-1.105-6.447-.263-2.326-.357-8.734-.176-12.185.22-4.019.437-6.572 1.421-16.379 2.02-20.057 2.599-28.715 2.97-43.856.185-7.61.126-11.49-.176-12.577-.478-1.707-1.172-2.858-3.23-5.312-2.208-2.657-3.608-5.035-4.516-7.715-.881-2.567-1.093-5.753-.982-14.727.083-6.344.136-7.95.548-14.471.72-11.362 1.984-22.484 2.553-22.332.417.115.641 3.224.995 14.183.427 13.247.738 18.126 1.316 21.034.302 1.53.529 1.998.908 1.948.96-.138 1.434-4.89 1.751-17.543.398-16.09.553-19.047 1.084-19.564.557-.556.806 2.604 1.134 14.195.39 13.55.688 18.29 1.367 21.237.502 2.25 1.387 2.263 1.895.04.598-2.604.805-6.876.971-19.87.166-12.373.308-15.394.776-15.684.556-.34.881 3.199 1.374 14.79.43 10.302.629 13.69.941 16.875.363 3.805.79 5.562 1.32 5.563.633 0 1.04-1.705 1.385-5.812.244-2.895.388-7.812.526-17.784.164-11.047.294-13.689.673-13.688.063 0 .227.24.353.544zm46.153 3.336c1.188.28 2.173 1.773 2.991 4.555 1.07 3.565 1.672 8.495 2.167 17.596.26 4.626.346 28.78.143 40.927-.163 10.377-.214 10.87-1.674 16.316-.94 3.512-1.016 4.107-1.02 7.62-.009 7.812.573 18.265 1.486 26.937.388 3.603.776 6.712 1.68 13.337 1.453 10.707 1.628 12.4 1.623 16.686.009 3.716-.157 5.245-.805 7.912-.685 2.755-1.319 4.043-2.571 5.166-3.024 2.714-8.433 2.076-10.641-1.263-.82-1.227-1.437-3.68-1.8-7.03-.338-3.223-.093-7.685.8-14.47.166-1.328.51-3.906.752-5.751 1.147-8.67 1.877-16.455 2.316-24.771.258-5.132.496-13.891.436-16.937l-.047-2.591-.454-1.328c-.252-.733-1.248-3.01-2.219-5.058-2.42-5.097-3.303-7.385-4.108-10.559-1.07-4.248-1.256-7.623-.942-16.938.759-22.7 3.572-40.392 7.523-47.276 1.28-2.223 2.975-3.422 4.364-3.08z" fill="#242424"/></svg>