<svg xmlns="http://www.w3.org/2000/svg" viewBox="0 0 1080 400" shape-rendering="geometricPrecision" text-rendering="geometricPrecision"><path d="M162.825 149.576c-5.12-.25-10.24-.5-15.512-.577a198.712 198.712 0 00-8.094.039c-8.213.214-16.943 1.02-25.91 3.725s-18.174 7.309-25.92 16.435-14.03 22.777-10.746 37.967c3.083 14.26 14.599 29.88 37.304 30.209a53.23 53.23 0 004.58-.135c25.75-1.847 64.398-22.27 93.696-22.115.192 0 .384.002.575.005 28.984.42 48.76 20.9 62.174 23.332.877.159 1.727.24 2.553.253 11.895.172 18.906-14.136 31.829-21.235 13.82-7.592 34.404-6.937 49.791-8.436 15.388-1.5 25.579-5.152 33.299-10.948s12.968-13.737 16.56-20.986c3.59-7.249 5.523-13.806 2.162-23.91s-12.016-23.758-22.163-31.561c-10.148-7.803-21.788-9.756-33.305-10.275a127.714 127.714 0 00-3.896-.118c-10.274-.149-21.07 1.028-37.273 5.08-18.258 4.565-43.38 12.78-59.414 15.182-3.285.492-6.188.74-8.826.702-10.24-.148-16.484-4.612-25.532-15.874-11.38-14.164-27.192-39.082-47.407-57.816-20.215-18.734-44.832-31.286-65.518-33.136a62.024 62.024 0 00-4.629-.24c-18.56-.27-33.625 7.917-43.533 16.164-10.72 8.922-15.402 17.915-17.409 25.716s-1.339 14.409.401 20.893 4.552 12.845 11.353 19.288c6.802 6.443 17.593 12.97 26.234 17.386s15.13 6.725 28.535 10.538c13.404 3.812 33.723 9.13 54.041 14.448z" fill="#ffd51f"/><path d="M133.756 236.944c-2.328.046-6.6.46-10.678.341a48.472 48.472 0 01-11.803-1.827c-3.796-1.072-7.457-2.532-10.953-4.325s-6.827-3.817-11.476-7.46-9.323-9.24-12.11-15.252c-2.786-6.012-3.826-12.227-3.458-18.372s2.129-12.04 5.34-17.328 7.805-9.69 12.36-12.407 8.376-4.357 12.454-5.728c4.077-1.372 8.335-2.45 12.684-3.208s8.726-1.186 13.067-1.275 8.63.12 11.737.744 3.106.625 1.072.053c0 0-3.958-1.611-8.252-2.81-4.294-1.199-8.851-1.796-13.53-1.881s-9.382.306-14.017 1.108c-4.635.803-9.123 1.998-13.456 3.594s-11.224 5.435-16.76 10.985c-5.535 5.55-9.364 12.34-11.344 19.891s-1.738 15.489.71 23.204c2.45 7.716 7.077 14.804 13.847 20.666s10.588 8.028 14.47 9.834c3.88 1.806 7.96 3.274 12.196 4.307 4.235 1.034 8.583 1.561 12.984 1.417s8.778-1.03 10.834-2.107c4.203-1.804 1.934-1.437 4.082-2.164z" fill="#242424"/><path d="M199.252 173.138c-.944-1.363-3.421-3.615-6.279-5.8s-6.072-4.31-9.607-6.422-7.392-4.192-11.549-6.286c-4.157-2.095-8.618-4.186-11.794-5.568s-5.368-2.172-8.412-3.144c-3.045-.972-6.97-2.132-11.78-3.518s-10.514-2.974-17.123-4.753-14.147-3.647-19.344-4.939c-5.196-1.292-7.392-1.91-9.51-2.575a130.879 130.879 0 01-6.132-2.095c-1.973-.728-3.88-1.473-5.725-2.222s-3.633-1.494-6.129-2.568a122.867 122.867 0 01-8.413-4.023c-2.84-1.5-5.445-3.044-7.823-4.628s-4.534-3.203-6.475-4.85-3.674-3.32-5.714-5.643-4.246-5.408-6.008-8.64-3.056-6.575-3.856-9.984-1.084-6.858-.827-10.32 1.085-6.924 2.542-10.5 3.468-7.353 5.985-11.12c2.517-3.767 5.552-7.408 9.121-10.785s7.688-6.384 12.388-8.894 10.01-4.423 16.402-5.693 13.453-1.784 20.495-1.486 13.984 1.35 20.728 3.077a107.994 107.994 0 0119.282 6.932c6.075 2.867 11.682 6.192 16.846 10.022 5.163 3.83 10.516 8.732 16.28 14.696 5.764 5.964 11.968 12.806 18.668 20.298 6.7 7.491 13.948 15.454 21.816 23.664 7.868 8.211 16.545 16.358 24.509 22.955s14.657 10.96 21.198 14.22 12.856 5.51 18.844 6.895 11.574 2.007 16.666 1.964c5.093-.042 9.606-.707 12.676-1.167 3.07-.46 3.07-.46 1.016-.315 0 0-4.126-.191-8.7-.805a111.085 111.085 0 01-14.817-2.996c-5.283-1.455-10.83-3.553-16.567-6.441s-11.619-6.657-17.585-11.464-14.585-13.003-22.66-21.17c-8.076-8.168-15.613-16.204-22.623-23.967s-13.555-15.09-19.723-21.777-12.037-12.572-17.718-17.45c-5.68-4.877-11.444-8.82-17.728-12.282s-13.036-6.396-20.164-8.72-14.556-3.969-22.194-4.849c-7.638-.88-15.407-.92-23.205-.028-7.798.891-14.435 2.558-20.38 5.027s-11.193 5.606-15.76 9.246c-4.566 3.64-8.47 7.651-11.745 11.874s-5.947 8.539-8.064 12.826-3.665 8.634-4.48 13.08-.909 8.879-.33 13.235c.578 4.357 1.784 8.588 3.561 12.642 1.778 4.055 4.084 7.899 6.846 11.465 2.761 3.566 4.696 5.611 6.79 7.547a73.584 73.584 0 006.913 5.625c2.516 1.814 5.247 3.564 8.198 5.247s6.125 3.296 9.51 4.83a201.288 201.288 0 007.037 3.056 243.1 243.1 0 005.82 2.323c2.03.78 4.154 1.547 6.375 2.289 2.22.741 4.54 1.445 6.952 2.095 2.413.65 10.56 2.656 17.803 4.386 7.242 1.731 13.597 3.18 19.043 4.43 5.446 1.25 9.987 2.283 13.605 3.15s6.298 1.574 8.001 2.068c1.704.493 6.418 2.209 10.859 3.892s8.595 3.332 12.455 4.971 7.439 3.253 10.741 4.85 6.345 3.171 7.938 3.742c2.833 1.528 1.795.31 3.034 1.268z" fill="#242424"/><path d="M265.536 126.507c4.354-.647 12.528-3.25 20.749-5.738 8.22-2.487 16.54-4.6 24.958-6.178 8.419-1.579 16.939-2.512 25.572-2.627s17.393.677 24.942 2.188 13.48 3.69 18.867 6.697c5.387 3.008 10.123 6.7 14.07 10.884 3.947 4.184 7.003 8.69 9.06 13.297 2.055 4.608 3.05 9.138 3.018 13.658-.032 4.519-.8 9.063-2.227 13.38s-3.519 8.348-6.29 12.038-6.245 6.989-10.465 9.83-9.224 5.161-12.462 6.253c-3.237 1.093-4.734 1.505-7.056 2.144-2.323.639-5.458 1.54-9.422 2.642-3.965 1.103-8.757 2.426-14.377 3.984a3695.429 3695.429 0 00-16.74 4.671c-4.67 1.322-6.892 2.054-8.945 2.85-2.054.797-3.942 1.639-5.678 2.491s-3.324 1.699-4.76 2.542c-1.434.843-2.728 1.65-5.01 3.183s-5.484 3.966-8.394 6.602-5.455 5.474-7.56 8.486-3.663 6.2-4.584 9.496-1.093 6.643-1.089 9.118.005 2.475.11.84c0 0 .54-3.23 1.783-6.151s2.88-5.623 4.92-8.144 4.438-4.89 7.165-7.102c2.726-2.212 5.737-4.26 8.983-6.161s4.402-2.494 5.705-3.142a82.851 82.851 0 014.254-1.95c1.53-.657 3.184-1.29 4.97-1.879s3.7-1.147 5.765-1.643 9.185-1.987 15.466-3.357c6.28-1.371 11.711-2.598 16.3-3.666 4.587-1.069 8.337-1.975 11.263-2.69 2.925-.715 5.022-1.28 6.433-1.679s7.749-2.598 13.486-5.626 10.648-6.747 14.709-11.054 7.263-9.108 9.607-14.285c2.344-5.177 3.843-10.636 4.518-16.321s.306-11.712-1.46-17.724c-1.765-6.012-4.763-11.764-8.827-17.106s-9.086-10.148-14.942-14.25-12.451-7.354-19.659-9.542c-7.207-2.188-16.944-3.45-26.412-3.535-9.467-.084-18.644.884-27.515 2.71s-17.434 4.386-25.68 7.554c-8.247 3.168-16.176 6.83-19.779 9.384-7.494 4.28-3.449 2.902-7.34 4.628z" fill="#242424"/><path d="M327.336 199.284c-2.384.122-6.997 1.634-11.603 3.823-4.605 2.188-9.05 4.86-12.772 8.252-3.722 3.392-6.858 6.916-9.256 10.331s-3.915 6.527-4.795 8.465-.879 1.938-.227.686c0 0 1.502-2.383 4.074-4.89s5.775-5.231 9.471-8.014 7.676-5.586 11.567-8.612 7.884-5.754 9.733-7.313c3.954-2.332 1.705-1.955 3.808-2.728zM144.735 50.137c-1.506-1.09-4.88-2.651-8.551-4.042-3.672-1.39-7.624-2.638-11.845-3.735-4.22-1.098-8.702-2.067-12.742-2.684-4.04-.617-7.266-.823-10.492-.841-3.226-.019-6.449.16-9.631.695s-6.286 1.461-10.49 3.036-9.34 4.278-13.922 7.769c-4.581 3.49-8.553 7.762-11.865 12.778s-5.908 10.761-7.954 15.168-2.047 4.407-.505 1.575c0 0 3.618-5.35 7.713-9.661s8.22-7.868 12.487-10.65c4.267-2.782 8.678-4.868 13.412-6.26s7.484-1.944 10.26-2.38c2.775-.436 5.512-1.024 8.29-1.462 2.78-.438 5.603-.785 8.423-.93s7.303.004 11.654.236 8.482.564 12.41.933c3.927.37 7.659.793 9.547.737 3.556.48 2.133-.817 3.8-.282zM301.54 161.611c-.111-.035-.324-.07-.526-.104-.201-.036-.391-.072-.57-.11s-.344-.076-.877-.22-1.443-.374-2.342-.583-1.784-.4-2.657-.575-1.735-.319-2.343-.433c-.609-.114-.997-.197-1.364-.274s-.716-.154-1.042-.228c-.327-.075-.633-.146-1.133-.265s-1.24-.334-2.116-.613-1.883-.624-3.019-1.039c-1.136-.414-2.404-.881-3.494-1.209s-2.056-.594-3.208-.972-2.49-.854-4.02-1.403c-1.53-.55-3.24-1.191-4.294-1.582s-1.474-.545-2.3-.888-2.023-.862-3.595-1.532-3.528-1.477-5.059-2.353-1.53-.876-.534-.253c0 0 1.921 1.36 3.424 2.652 1.503 1.293 2.723 2.305 3.66 3.042s1.588 1.222 1.943 1.445c.355.223 2.01 1.287 3.543 2.229 1.533.942 2.926 1.755 4.191 2.422s2.39 1.226 3.38 1.696c.99.47 2.465.818 3.797 1.102 1.332.283 2.542.504 3.626.676s2.05.284 2.877.347 1.148.085 1.504.105a33.617 33.617 0 002.35.033c.434-.01 1.297-.05 2.161-.082s1.748-.08 2.648-.124 1.82-.094 2.76-.151c.94-.057 1.124-.071 1.31-.091s.38-.044.582-.074.414-.062.523-.1c.22-.037.102-.49.213-.49zm17.363-38.341c1.329.075 3.876-.116 6.411-.248s5.07-.165 7.611-.105c2.541.06 5.093.23 7.66.523 2.566.292 5.151.706 7.747 1.28 2.597.574 5.516.865 8.655 1.479s6.408 1.413 9.708 2.288 6.528 1.827 9.582 2.803c3.055.977 5.84 1.988 7.59 3.007s1.75 1.019.609.297c0 0-2.209-1.57-4.689-3.429-2.48-1.858-5.321-3.655-8.408-5.305s-6.307-3.154-9.555-4.434c-3.248-1.281-6.43-2.322-9.452-2.998s-5.923-.844-8.753-.868-5.603.147-8.314.478c-2.71.331-5.356.814-7.926 1.481s-5.06 1.513-6.223 2.206c-2.393 1.027-1.023 1.211-2.253 1.545zM81.425 185.234c-.282.999-.505 3.266-.586 5.861a51.63 51.63 0 00.432 8.337c.387 2.921 1.097 5.848 2.224 8.66s2.755 5.409 5.002 7.3c2.248 1.892 4.674 3.358 7.212 4.63s5.153 2.326 7.757 3.19 5.146 1.518 7.539 1.99c2.392.473 4.563.793 5.981 1.194 1.419.402 1.419.402.477.123 0 0-1.874-.592-3.88-1.64s-4.163-2.236-6.403-3.528-4.505-2.66-6.688-4.143c-2.183-1.483-4.244-3.022-6.032-4.633s-3.206-3.222-4.561-5.068c-1.355-1.846-2.529-4.083-3.503-6.566s-1.757-5.083-2.409-7.636-1.191-4.94-1.596-6.026c-.447-2.067-.924-1.065-.966-2.045zm49.733-98.404c.36.108 1.149.305 2.048.66s1.914.857 3.051 1.501c1.137.644 2.399 1.432 4.039 2.61s3.652 2.73 5.652 4.262c2 1.532 3.97 3.076 5.91 4.627s4.063 2.817 5.686 3.815 3.043 2.036 4.887 3.62c1.844 1.583 4.08 3.687 6.768 6.24s5.824 5.548 8.097 8.243c2.273 2.695 2.273 2.695.869.814 0 0-2.476-4.013-4.524-7.633s-3.955-6.64-5.714-9.075-3.326-4.348-4.73-5.732c-1.405-1.385-3.388-3.004-5.49-4.43-2.101-1.426-4.339-2.664-6.613-3.856a164.424 164.424 0 00-6.95-3.451c-2.371-1.105-4.054-1.684-5.525-2.102s-2.797-.694-3.975-.83-2.197-.145-2.665-.044c-.85.118-.44.743-.821.76z" fill="#c49810"/><path d="M606.612 246.631q1.353.012 2.362.81 1.009.685 1.788 1.933.779 1.247 1.215 2.943.325 1.582.423 3.274.083 3.498-1.299 6.87t-3.778 6.51q-2.282 3.138-5.127 6.046-2.844 2.796-5.572 5.254-4.32 3.911-9.314 7.59l-10.897 8.029q.472-2.478 1.176-5.63.59-3.153 1.521-6.416.817-3.152 1.859-6.301.928-3.038 2.19-5.508 5.398-11.346 11.436-18.288 6.036-6.829 12.017-7.116zm137.16 13.017q1.804.016 3.03 1.83 1.224 1.816 1.426 4.638.201 2.821.185 4.738-.155 18.046-9.088 33.874-6.178 10.211-14.93 18.032-8.638 7.709-19.28 12.13-7.745 3.178-12.912 3.16h-.085q-1.58-.014-2.697-1.264-1.004-1.25-1.665-3.06-.55-1.697-.872-3.617-.21-1.806-.2-2.935.031-3.721 1.199-8.336 1.166-4.502 3.126-9.448 1.96-4.833 4.597-9.886 2.636-4.94 5.495-9.541 2.746-4.488 5.711-8.298 2.852-3.81 5.469-6.382 3.072-3.132 6.368-6.037 3.182-2.792 6.698-5.018 3.514-2.113 7.247-3.322 3.56-1.19 7.437-1.177l.13.001.299.002q1.655.006 3.311-.084zm122.864-76.889q-2.558-.008-4.685 1.088-2.152 1.11-3.86 3.012-1.596 1.904-2.745 4.376-1.036 2.472-1.51 5.175-.24 1.577-.712 4.055l-.837 5.52q-.716 4.618-1.194 7.772-.477 3.042-1.067 6.082t-1.41 6.643q-.708 3.603-1.771 9.233-1.65 8.22-3.305 17.117-1.542 8.785-2.86 17.797-.898 6.145-1.587 12.291h-.006q-.444.494-.889.998-1.367 1.567-1.936 2.239-7.17 7.383-14.558 13.975-7.386 6.478-14.874 11.49-7.373 4.9-14.617 7.77-7.15 2.723-13.948 2.7h-.174q-4.174-.036-7.539-2.208-3.253-2.058-5.594-5.35-2.227-3.29-3.433-7.36-1.207-3.958-1.174-7.793.058-6.767 1.692-13.183l3.391-14.07q1.745-6.188 1.777-9.91.011-1.354-.758-3.73t-1.99-4.753q-1.107-2.379-2.444-4.308-1.337-1.929-2.347-2.614-2.02-1.258-4.495-1.956-2.476-.585-5.067-.946-2.593-.247-5.3-.27l-4.962-.043h-.09q-4.705-.016-10.76 2.501-6.112 2.542-12.465 6.774-6.352 4.12-12.263 9.483-5.91 5.25-10.242 10.628-4.105 5.153-8.448 11.77l-.008.014h-.005l-2.717 2.67q-7.735 7.604-15.577 14.53-7.84 6.814-17.488 13.724-5.22 3.678-11.228 7.236-5.895 3.446-12.235 6.212-6.34 2.652-12.895 4.288-6.427 1.604-12.731 1.583l-.254-.002q-11.505-.098-18.11-5.907-6.493-5.696-6.4-16.636 8.393-5.342 14.413-10.254 5.907-4.8 10.791-8.818 7.724-6.363 13.187-11.956 5.46-5.48 8.89-10.752 3.315-5.16 4.824-10.223 1.396-4.951 1.215-10.141-.186-4.627-2.07-8.478-1.772-3.85-4.9-7.486-1.004-1.25-2.688-2.166-1.685-.804-3.485-1.384-1.8-.579-3.377-.818-1.577-.24-2.48-.247-3.723.194-7.455 1.29-3.618 1.097-7.131 2.984-3.4 1.889-6.58 4.343-3.066 2.455-5.57 5.141-13.329 15.339-18.998 31.984-1.532 4.59-2.653 9.26h-.004q-2.6 2.618-5.136 5.11l-6.823 6.485q-3.298 3.13-6.934 6.256-3.636 3.128-7.837 6.363-4.2 3.122-8.283 5.681-4.081 2.447-7.704 3.995-3.594 1.536-5.954 1.528h-.037q-6.203-.053-9.527-7.075-3.212-6.908-4.67-21.02-.62-6.66-.911-12.19-.18-5.415-.48-9.93-.3-4.4-1.06-7.904-.647-3.39-2.316-6.11-.667-1.134-2.012-2.161-1.233-.913-2.919-1.604-1.686-.691-3.488-1.045t-3.493-.368h-.025q-2.587-.01-6.315 2.765-3.745 2.675-8.072 7.376-4.212 4.588-8.663 10.64-4.45 6.054-8.342 12.563-3.891 6.621-7.097 12.12-3.205 5.5-5.838 9.99-5.145 8.855-7.289 8.848h-.005q-.339-.003-.897-.685-.559-.568-1.222-2.153-.664-1.472-1.319-4.072-.541-2.6-.846-6.55-.304-4.063-.603-8.577-.187-4.513-.487-9.028-.3-4.514-.715-8.691-.304-4.063-.954-7.227-1.295-6.779-5.319-11.1-3.912-4.206-9.325-4.252l-.113-.001q-5.466-.019-10.513 2.73-5.1 2.776-9.883 8.149-2.392 2.686-5.245 6.61-2.854 3.923-5.825 8.41-2.857 4.374-5.602 8.75-2.631 4.376-4.804 7.854-3.088 4.937-6.174 9.647-2.973 4.712-5.713 8.637t-5.022 6.837-3.76 4.367q.02-2.256.39-5.975.37-3.606 1.437-9.8.36-2.479 1.183-6.42.71-3.829 1.652-8.445t2-9.683q.946-5.068 1.776-9.798.83-4.73 1.428-8.786.486-4.056.51-6.763.022-2.594-.408-5.08-.318-2.371-1.318-4.184-.887-1.812-2.456-2.954-1.458-1.027-3.826-1.048h-.015q-1.349-.004-3.154 1.214-1.814 1.112-3.52 2.79-1.593 1.565-2.849 3.36t-1.606 3.144q-.699 2.588-1.188 6.983-.376 4.395-.872 9.692-.383 5.186-.881 10.708t-1.104 10.368q-.727 5.859-1.442 10.252t-1.198 8.224q-.484 3.83-.855 7.663-.257 3.72-.296 8.23-.023 2.708.075 4.4-.014 1.692.199 3.16.214 1.356.652 2.826.327 1.356.985 3.618 2.631 8.82 11.203 8.894h.047q4.594.015 7.889-4.67 1.483-2.017 3.54-5.158 1.945-3.142 4.119-6.733l4.12-6.957q2.06-3.48 3.662-6.173 5.84-10.214 11.667-18.962 5.827-8.635 10.844-15.022 4.905-6.387 8.884-10.075 3.855-3.566 5.884-3.56h.012q3.271.029 5.335 9.295 1.952 9.154 2.145 26.187.414 17.487 2.832 24.952 2.644 7.354 10.426 7.42h.033q5.175.018 11.544-8.36 6.388-8.405 15.663-24.568 4.693-8.08 9.035-14.586 4.23-6.505 7.879-11.212 3.536-4.594 6.264-7.052 2.607-2.452 4.072-2.447h.01q.902.008 1.677 1.707.662 1.697 1.314 4.635.54 2.825.958 6.663.42 3.726.948 7.791.417 4.065.945 8.242.416 4.064 1.062 7.68 1.393 8.584 3.377 14.015 1.984 5.431 4.664 8.612 2.568 3.068 5.829 4.224 3.148 1.154 7.096 1.188h.105q4.353.015 9.272-1.837 4.978-1.762 9.74-4.541 4.76-2.78 9.075-6.014 4.313-3.234 7.607-5.913 4.09-3.348 8.411-7.485 4.208-4.024 7.966-8.166l.252-.27H559q-.165 2.829-.19 5.685-.181 21.204 9.767 31.779 9.835 10.574 27.881 10.728.482.01.966.013 7.902.026 16.425-2.345 8.932-2.518 17.996-7.29 9.064-4.66 18.03-11.239 8.854-6.466 17.153-14.065 2.86-2.616 5.625-5.344h.005q-.27.886-.524 1.778-2.21 7.764-2.273 15.208-.032 3.722 1.056 8.469.974 4.746 3.194 8.938 2.107 4.191 5.466 7.152 3.246 2.848 7.87 2.888h.096q3.01.01 6.794-.956 3.729-.871 7.577-2.417 3.735-1.434 7.247-3.21 3.399-1.775 5.893-3.332 4.424-2.895 8.627-6.356 4.203-3.46 8.183-7.149 3.866-3.689 7.507-7.38 3.64-3.578 6.94-6.934 1.087 4.747 3.76 8.717 2.673 3.971 6.371 6.823 3.698 2.851 7.97 4.467 4.16 1.502 8.334 1.538.49.01.976.012 8.47.028 15.852-2.576 7.693-2.64 14.838-7.204t13.965-10.596q6.705-5.92 13.753-12.29 2.045-1.787 3.98-3.8.775-.81 1.509-1.6h.007q-.051 1.78-.066 3.53-.103 12.067 2.753 21.002 2.744 8.822 7.77 14.73 4.912 5.907 11.655 8.785 6.743 2.878 14.525 2.944l.176.001q5.78.02 11.797-1.929 5.994-1.866 11.774-5.088 5.667-3.222 10.89-7.238 5.11-4.017 9.433-8.266 2.844-2.795 5.805-6.154 2.96-3.245 5.695-6.493 2.734-3.135 5.016-6.161 2.168-2.914 3.427-5.046 4.04-6.948 5.596-11.626h.007q.841 2.265 2.015 4.472 2.11 3.853 5.114 8.729 2.892 4.762 6.678 10.547 7.684 11.458 7.652 15.18-.063 7.444-5.74 11.681-5.675 4.238-16.992 8.653-11.544 4.525-16.992 8.427-5.562 4.125-5.624 11.457-.023 2.594 3.8 4.093 3.709 1.498 6.529 1.522h.074q8.223.028 22.338-9.283 7.146-4.676 14.529-10.591 7.38-5.802 15.558-12.387 3.408-2.79 8.064-6.473 4.656-3.683 9.653-7.7 4.885-4.02 9.772-8.263 4.772-4.133 8.753-7.934 4.435-4.248 7.733-7.491 3.298-3.13 5.8-5.59 2.39-2.348 4.324-4.362 1.934-1.901 3.643-3.804 2.163-2.35 4.327-4.813 2.163-2.35 3.875-4.704 1.712-2.354 2.746-4.601 1.034-2.134 1.049-3.94.009-1.014-.32-2.258-.328-1.13-.995-2.264-.555-1.02-1.339-1.703-.783-.684-1.686-.692-.226 0-2.16 2.125-1.823 2.015-5.69 5.816-3.868 3.802-8.191 8.165-4.324 4.361-10.916 10.17-6.365 5.698-12.725 10.832-6.36 5.022-11.807 8.923-5.334 3.79-9.302 6.124-3.84 2.215-5.421 2.21h-.012q-1.128-.01-1.237-.462-1.111-1.927-3.33-6.12-2.222-4.08-5.449-9.296-3.226-5.216-5.669-9.748-2.442-4.533-4.327-8.384-3.541-7.926-3.491-13.791 1.251-1.23 3.296-3.017 1.933-1.788 4.773-4.133 2.954-2.456 5.23-4.692 2.273-2.124 3.87-4.14 3.307-4.258 3.346-8.77.1-11.73-9.825-11.815-.146-.007-.293-.007-2.608-.01-6.042 2.096-3.628 2.225-7.157 6.03-3.528 3.692-6.615 8.516-2.973 4.712-4.367 9.437-2.891 8.322-2.956 15.879-.018 2.1.216 4.157h-.008q-1.123.395-2.4 1.577-1.82 1.789-3.3 3.468-1.824 2.127-4.558 5.262-2.732 3.022-6.378 7.277-4.556 5.15-10.018 10.743-5.461 5.48-11.59 10.052-6.018 4.573-12.586 7.562-6.488 2.842-13.171 2.82l-.163-.001q-6.203-.053-10.58-2.572-4.265-2.518-7.046-7.054-2.668-4.534-3.854-10.974-1.186-6.326-1.12-14.109.062-7.218.923-15.557.86-8.34 2.287-16.9 1.314-8.561 2.964-16.78 1.536-8.221 2.95-15.316.821-3.602 2.7-12.384 1.88-8.782 4.822-22.968.595-3.605 1.412-6.869.704-3.152 1.41-6.643-2.55-5.097-7.964-5.143h-.062z" fill="#1b1b1b"/><path d="M162.358 189.974c4.536 1.244 9.054 7.594 12.039 16.925 2.141 6.714 3.283 14.11 3.426 22.035.095 5.258-.173 7.621-1.188 10.768-1.46 4.498-3.8 7.529-8.835 11.453-2.354 1.83-3.227 2.664-3.594 3.447-.266.543-.279.72-.283 4.6-.01 9.14.494 21.236 1.353 32.284.362 4.512.761 8.823 1.686 17.887 1.3 12.742 1.488 14.853 1.71 20.136.147 3.73.016 7.56-.366 10.504-.243 1.832-.853 4.903-1.208 5.965-1.141 3.462-3.495 5.443-6.503 5.452-1.858-.002-3.298-.61-4.675-2.002-1.376-1.38-2.03-3.035-2.57-6.512-.515-3.325-.577-4.336-.558-9.923.02-6.295.084-7.357 1.466-22.37 1.587-17.277 2.024-23.293 2.504-34.251.22-5.106.527-19.099.44-20.527-.1-1.757-.869-2.705-3.799-4.706-3.031-2.063-4.723-3.456-5.948-4.923-2.436-2.91-3.772-6.11-4.45-10.572-.45-2.97-.227-11.01.423-16.064 1.9-14.546 7.209-25.663 13.785-28.904 1.872-.92 3.515-1.146 5.145-.702zm63.69 1.356c.87 1.96 1.908 11.251 2.565 22.905.396 7.117.481 10.125.474 16.748.006 5.89-.034 7.116-.225 8.43-.267 1.858-.686 3.261-1.433 4.752-.735 1.452-1.203 2.135-3.305 4.773-1.898 2.387-2.658 3.5-3.203 4.724-.937 2.072-1.154 3.993-.906 7.532.087 1.138.575 6.511 1.087 11.933 1.885 20.011 2.347 25.636 2.905 35.142.508 8.57.57 10.491.56 19.023-.01 9.24-.114 11.237-.777 15.874-.599 4.133-1.258 5.915-2.725 7.38-.456.454-1.114.984-1.468 1.16-3.73 1.98-8.24-.287-9.626-4.839-.302-.986-.83-4.096-1.105-6.447-.263-2.326-.356-8.734-.176-12.185.22-4.02.438-6.572 1.422-16.38 2.02-20.056 2.598-28.714 2.97-43.855.185-7.61.126-11.49-.176-12.577-.479-1.707-1.172-2.858-3.23-5.313-2.209-2.656-3.609-5.034-4.516-7.714-.882-2.568-1.093-5.753-.982-14.727.083-6.344.135-7.95.548-14.472.72-11.362 1.984-22.483 2.553-22.331.417.114.64 3.224.995 14.183.427 13.246.737 18.126 1.316 21.034.301 1.53.528 1.998.907 1.947.961-.138 1.434-4.89 1.752-17.542.397-16.09.552-19.047 1.084-19.564.556-.556.806 2.604 1.134 14.195.389 13.55.687 18.29 1.366 21.236.503 2.25 1.388 2.264 1.896.04.597-2.603.804-6.875.97-19.868.166-12.374.309-15.395.776-15.685.557-.341.882 3.199 1.374 14.79.431 10.302.63 13.69.942 16.875.362 3.805.79 5.562 1.32 5.563.633 0 1.039-1.705 1.385-5.813.243-2.894.388-7.811.526-17.783.164-11.047.293-13.689.672-13.688.064 0 .228.24.354.544zm46.153 3.336c1.188.28 2.172 1.773 2.99 4.555 1.071 3.565 1.672 8.495 2.167 17.596.26 4.626.347 28.78.144 40.927-.164 10.377-.215 10.87-1.674 16.316-.94 3.512-1.016 4.107-1.02 7.62-.009 7.812.573 18.265 1.486 26.937.388 3.603.776 6.712 1.679 13.337 1.454 10.707 1.629 12.4 1.624 16.686.009 3.716-.157 5.245-.805 7.912-.686 2.755-1.32 4.043-2.572 5.166-3.024 2.714-8.433 2.076-10.64-1.263-.821-1.227-1.438-3.68-1.8-7.03-.338-3.223-.093-7.685.8-14.471.165-1.327.51-3.906.752-5.75 1.147-8.67 1.876-16.455 2.315-24.772.259-5.132.497-13.89.437-16.937l-.048-2.59-.453-1.328c-.252-.734-1.249-3.01-2.22-5.058-2.42-5.097-3.303-7.386-4.108-10.559-1.07-4.248-1.255-7.624-.941-16.938.759-22.7 3.572-40.392 7.523-47.277 1.28-2.222 2.974-3.421 4.364-3.079z" fill="#242424"/></svg>