<svg width="44" height="44" viewBox="0 0 44 44" fill="none" xmlns="http://www.w3.org/2000/svg">
<path d="M36.355 28.325C37.9929 26.6823 38.9126 24.4572 38.9126 22.1375C38.9126 19.8178 37.9929 17.5927 36.355 15.95L28.05 7.64499C27.1894 6.78205 26.1573 6.10934 25.0204 5.67037C23.8836 5.23141 22.6672 5.03595 21.45 5.09666L12.2833 5.53666C8.61666 5.70166 5.70166 8.61666 5.51833 12.265L5.07833 21.4317C4.96833 23.8883 5.88499 26.29 7.62666 28.0317L15.9317 36.3367C17.5744 37.9745 19.7994 38.8943 22.1192 38.8943C24.4389 38.8943 26.664 37.9745 28.3067 36.3367L31.0933 33.55" stroke="#FFD51F" stroke-width="2.5" stroke-linecap="round" stroke-linejoin="round"/>
<path d="M15.8333 20.4167C15.8333 21.6323 16.3162 22.798 17.1757 23.6576C18.0353 24.5171 19.2011 25 20.4166 25C21.6322 25 22.798 24.5171 23.6576 23.6576C24.5171 22.798 25 21.6323 25 20.4167C25 19.8148 24.8814 19.2188 24.6511 18.6627C24.4208 18.1066 24.0832 17.6014 23.6576 17.1758C23.232 16.7502 22.7267 16.4126 22.1706 16.1822C21.6145 15.9519 21.0185 15.8333 20.4166 15.8333" stroke="#252525" stroke-width="2.5" stroke-linecap="round"/>
</svg>
