<svg width="24" height="24" viewBox="0 0 24 24" fill="none" xmlns="http://www.w3.org/2000/svg">
<path opacity="0.4" d="M12 22C17.523 22 22 17.523 22 12C22 6.477 17.523 2 12 2C6.477 2 2 6.477 2 12C2 17.523 6.477 22 12 22Z" fill="#ffdd4b" fill-opacity="0.6"/>
<path d="M10.74 16.28C10.55 16.28 10.36 16.21 10.21 16.06C10.0705 15.9189 9.99231 15.7284 9.99231 15.53C9.99231 15.3316 10.0705 15.1411 10.21 15L13.21 12L10.21 9C10.0705 8.85887 9.99231 8.66843 9.99231 8.47C9.99231 8.27157 10.0705 8.08114 10.21 7.94C10.5 7.65 10.98 7.65 11.27 7.94L14.8 11.47C15.09 11.76 15.09 12.24 14.8 12.53L11.27 16.06C11.12 16.21 10.93 16.28 10.74 16.28V16.28Z" fill="#f2c500"/>
</svg>
