<svg width="44" height="44" viewBox="0 0 44 44" fill="none" xmlns="http://www.w3.org/2000/svg">
<path d="M34.8333 3.66666C31.79 3.66666 29.3333 6.12332 29.3333 9.16666C29.3333 12.21 31.79 14.6667 34.8333 14.6667C37.8766 14.6667 40.3333 12.21 40.3333 9.16666C40.3333 8.50666 40.2233 7.88332 40.0033 7.31499M12.485 27.3753C11.8433 25.3587 12.595 22.847 14.7216 22.1687C15.84 21.802 17.215 22.1137 18.0033 23.1953C18.7366 22.077 20.1666 21.8203 21.2666 22.1687C23.3933 22.847 24.145 25.3587 23.5033 27.3753C22.495 30.5837 18.975 32.252 18.0033 32.252C17.0133 32.2337 13.53 30.602 12.485 27.3753V27.3753Z" stroke="#252525" stroke-width="2.5" stroke-linecap="round" stroke-linejoin="round"/>
<path d="M3.66669 27.445V27.5C3.66669 36.6667 7.33335 40.3333 16.5 40.3333H27.5C36.6667 40.3333 40.3334 36.6667 40.3334 27.5V18.3333M25.6667 3.66666H16.5C7.33335 3.66666 3.66669 7.33332 3.66669 16.5V20.1667" stroke="#FFD51F" stroke-width="2.5" stroke-linecap="round" stroke-linejoin="round"/>
</svg>
