<svg width="44" height="44" viewBox="0 0 44 44" fill="none" xmlns="http://www.w3.org/2000/svg">
<path d="M24.75 16.5H19.25C16.225 16.5 13.75 18.975 13.75 22V27.5C13.75 30.525 16.225 33 19.25 33H24.75C27.775 33 30.25 30.525 30.25 27.5V22M22 16.5V33M13.75 24.75H30.25" stroke="#252525" stroke-width="2.5" stroke-linecap="round" stroke-linejoin="round"/>
<path d="M40.3334 19.2463C40.3334 17.028 38.8484 14.1863 37.0334 12.9213L25.7034 4.98299C23.1367 3.18632 19.0117 3.27799 16.5367 5.20299L6.65502 12.903C5.00502 14.1863 3.66669 16.918 3.66669 18.9897V32.5747C3.66669 36.828 7.13169 40.3113 11.385 40.3113H32.615C36.8684 40.3113 40.3334 36.828 40.3334 32.593V26.9097" stroke="#FFD51F" stroke-width="2.5" stroke-linecap="round" stroke-linejoin="round"/>
</svg>
