<svg id="e7GcudLoW1e1" xmlns="http://www.w3.org/2000/svg" xmlns:xlink="http://www.w3.org/1999/xlink" viewBox="0 0 1080 400" shape-rendering="geometricPrecision" text-rendering="geometricPrecision"><g transform="translate(-7.22855-267.215881)"><g><g><g><path d="M170.05385,416.7921c-5.12016-.25057-10.24039-.50093-15.51264-.57726-2.65297-.03848-5.34441-.03294-8.09378.03894-8.21319.21439-16.94287,1.02015-25.91063,3.72507s-18.17356,7.30875-25.91872,16.43549-14.02968,22.77636-10.746284,37.96634c3.082614,14.26095,14.598549,29.88012,37.304104,30.2091c1.479015.02149,3.005535-.02198,4.58031-.13488c25.74966-1.84656,64.39778-22.27048,93.69571-22.1154.19182.00086.38322.00282.57425.00562c28.98459.42011,48.75978,20.89963,62.17427,23.33168.87706.15905,1.72706.2409,2.55334.25286c11.89508.17236,18.90555-14.13614,31.82868-21.2349c13.82077-7.5917,34.4042-6.93692,49.79154-8.43609c15.38726-1.49903,25.57824-5.15157,33.29812-10.94791s12.96872-13.73682,16.55958-20.9856c3.59087-7.24893,5.5237-13.8063,2.1628-23.91122s-12.01553-23.75704-22.16324-31.56021c-10.14749-7.80295-21.78811-9.75607-33.30516-10.27487-1.2966-.05838-2.59175-.09873-3.8952-.11766-10.2744-.14885-21.0712,1.0281-37.27367,5.0794-18.25799,4.56517-43.38028,12.7801-59.41397,15.1824-3.28454.49203-6.18762.74017-8.82561.70196-10.23955-.1485-16.48411-4.61182-25.53224-15.87439-11.37906-14.16417-27.1922-39.08151-47.40711-57.81574-20.21491-18.7344-44.83161-31.28563-65.51805-33.13556-1.565575-.14001-3.108636-.21872-4.62828-.24072-18.55986-.26898-33.62567,7.91757-43.533586,16.16431-10.719214,8.9223-15.401337,17.91524-17.408447,25.71576s-1.339247,14.40898.400613,20.89343s4.5518,12.84463,11.353434,19.28772c6.801656,6.44321,17.592976,12.96933,26.233626,17.38638s15.130575,6.72455,28.53484,10.53733c13.40424,3.81262,33.72284,9.13058,54.0414,14.44862Z" fill="#ffd51f"/></g><g><path d="M140.98427,504.1599c-2.32738.04603-6.59918.46028-10.67754.34126-4.07834-.11932-8.00652-.75519-11.80282-1.82721-3.79624-1.07215-7.45699-2.53177-10.9537-4.32515s-6.82671-3.81676-11.475465-7.4606-9.32299-9.2392-12.109725-15.2515c-2.78676-6.01216-3.82634-12.22706-3.45798-18.37144s2.12821-12.04046,5.33857-17.3284s7.80573-9.69028,12.36094-12.40701s8.37634-4.35665,12.45366-5.72835c4.07734-1.37184,8.33498-2.4505,12.68432-3.20796s8.72592-1.18537,13.06746-1.275s8.63034.12021,11.73663.74478s3.10634.62452,1.07218.05252c0,0-3.95801-1.61134-8.25202-2.81011-4.29399-1.19861-8.85164-1.79633-13.52935-1.88099s-9.383064.30636-14.0181,1.10862c-4.635045.80209-9.1228,1.9978-13.45572,3.59354s-11.22402,5.43517-16.75941,10.98495c-5.535385,5.54989-9.36447,12.33945-11.34506,19.89108s-1.73792,15.48849.7111,23.20404c2.44907,7.71545,7.076754,14.80359,13.84596,20.66577s10.58871,8.02808,14.46957,9.83393c3.88087,1.80573,7.961664,3.2745,12.19694,4.3077c4.23526,1.03308,8.5828,1.56073,12.98379,1.41639s8.77826-1.02912,10.83409-2.10669c4.20338-1.8046,1.93411-1.4372,4.08168-2.16417Z" fill="#242424"/></g><g><path d="M206.4803,440.35434c-.94336-1.36331-3.4209-3.6156-6.27829-5.80081s-6.07217-4.31033-9.60704-6.42123-7.39238-4.19282-11.54939-6.2868c-4.15708-2.09413-8.61838-4.18592-11.79419-5.5675s-5.36757-2.17256-8.41219-3.14418c-3.04461-.9715-6.96953-2.13156-11.77891-3.51792s-10.51515-2.97415-17.12354-4.7533-14.1471-3.64666-19.343885-4.93865c-5.196755-1.29218-7.392571-1.91015-9.510025-2.57475-2.117455-.66478-4.1601-1.36684-6.132706-2.09517-1.972614-.72823-3.879089-1.4729-5.724264-2.22229s-3.6332-1.49402-6.12903-2.56787c-2.49581-1.07404-5.57406-2.52371-8.41359-4.02335-2.83957-1.49945-5.44512-3.04382-7.8231-4.62782s-4.533906-3.20253-6.47497-4.85008-3.673415-3.31965-5.71382-5.64277-4.246136-5.4082-6.00811-8.64065-3.056107-6.5743-3.85541-9.9837-1.084062-6.85785-.82687-10.3199s1.08435-6.92403,2.541106-10.50066s3.468437-7.35254,5.985569-11.11936c2.517101-3.76693,5.551955-7.40814,9.12096-10.785s7.688395-6.38376,12.387565-8.89386s10.01065-4.42245,16.40204-5.69282s13.45334-1.78405,20.49494-1.48565s13.98489,1.34971,20.72871,3.07665c6.74384,1.72676,13.20564,4.0653,19.2814,6.9319c6.07579,2.8667,11.68216,6.19168,16.84594,10.02176c5.16375,3.83026,10.5161,8.7319,16.2801,14.6961c5.76392,5.96402,11.96813,12.80616,18.66805,20.29789c6.69984,7.49163,13.94813,15.45395,21.81633,23.66473c7.86818,8.21094,16.54467,16.35724,24.50872,22.95442s14.6575,10.96022,21.1982,14.22017s12.8561,5.5094,18.84372,6.89473s11.5741,2.00722,16.66663,1.9646c5.09249-.04243,9.60592-.7075,12.67535-1.1677c3.06952-.46006,3.06952-.46006,1.0165-.31434c0,0-4.12603-.19168-8.69985-.80478-4.57382-.61285-9.53525-1.54095-14.81785-2.99634-5.28252-1.45529-10.8295-3.55314-16.56618-6.44156s-11.61912-6.65673-17.58509-11.46356-14.58534-13.00277-22.66098-21.17047c-8.07568-8.16781-15.61264-16.20328-22.62215-23.96701s-13.55488-15.09012-19.72268-21.77646-12.03702-12.57236-17.7182-17.44995c-5.68117-4.87738-11.44382-8.8201-17.72818-12.28203s-13.03625-6.39564-20.16376-8.71937-14.55674-3.96949-22.194295-4.8494c-7.63755-.8797-15.406665-.92023-23.204849-.02859-7.798196.89146-14.435186,2.55871-20.379936,5.02691s-11.19331,5.60585-15.759682,9.24591c-4.566342,3.64024-8.470698,7.6514-11.745293,11.87491s-5.947517,8.53845-8.064545,12.82503-3.664585,8.63478-4.479553,13.07957-.908703,8.8797-.330387,13.23633c.57837,4.35648,1.784306,8.5874,3.561607,12.64194c1.77739,4.05466,4.083413,7.89822,6.84525,11.46451c2.761733,3.56655,4.69654,5.61125,6.790873,7.54665c2.0943,1.93556,4.397454,3.8115,6.912862,5.6256c2.515415,1.81383,5.246428,3.5637,8.197304,5.24642s6.125488,3.29675,9.509614,4.83114c3.38412,1.53418,5.18731,2.29062,7.03728,3.05542c1.85001.7649,3.78916,1.54402,5.81977,2.32306c2.030606.77924,4.15506,1.547,6.37548,2.28858c2.22047.74133,4.53946,1.44531,6.95241,2.09558c2.412974.6501,10.55974,2.6552,17.8024,4.3861c7.24271,1.73102,13.59713,3.18024,19.04305,4.43024c5.44588,1.25013,9.98716,2.28232,13.60485,3.14991s6.29808,1.57391,8.0016,2.06723c1.70361.49307,6.41789,2.20919,10.85873,3.89184s8.59464,3.33258,12.45494,4.97178s7.43902,3.25283,10.74151,4.84942s6.34446,3.17154,7.93817,3.74203c2.8323,1.52848,1.79467.31067,3.03326,1.26859Z" fill="#242424"/></g><g><path d="M272.76437,393.72287c4.35403-.64743,12.52808-3.2504,20.74878-5.7377c8.22068-2.48749,16.54013-4.60013,24.95877-6.17841c8.41864-1.57846,16.93818-2.5123,25.57172-2.62686s17.39336.67682,24.94189,2.18814s13.48007,3.68961,18.86731,6.69716c5.38716,3.00768,10.12229,6.7005,14.06943,10.88377c3.94705,4.18345,7.00343,8.68963,9.05939,13.29725c2.056,4.60745,3.05069,9.13772,3.01892,13.65718-.03162,4.5195-.79978,9.06392-2.22714,13.37965s-3.51859,8.34905-6.28952,12.03888-6.24532,6.98892-10.46522,9.83017-9.2241,5.16077-12.46178,6.25305c-3.23768,1.09255-4.73412,1.5044-7.0568,2.14365-2.32266.6391-5.45767,1.5392-9.42196,2.64212-3.96433,1.10312-8.75632,2.42575-14.37616,3.98438-5.61976,1.5588-12.07193,3.34878-16.74134,4.67068-4.66936,1.32202-6.89116,2.05426-8.94446,2.85042-2.0534.7961-3.9418,1.63853-5.67758,2.49046s-3.32412,1.69864-4.75915,2.5419c-1.435.84338-2.7294,1.64966-5.01114,3.18292s-5.48367,3.9664-8.39363,6.60199c-2.90996,2.63573-5.45522,5.47385-7.56053,8.4863s-3.663,6.19943-4.58359,9.49588-1.09332,6.6427-1.08875,9.11805.00457,2.4753.11063.8394c0,0,.53934-3.2289,1.78256-6.1507s2.87968-5.62285,4.91873-8.1442s4.439-4.88975,7.16562-7.10167c2.72666-2.21163,5.7374-4.25993,8.98343-6.16103s4.40137-2.4937,5.70493-3.14225c1.30357-.64881,2.72409-1.2948,4.25377-1.95045c1.5298-.65575,3.1838-1.28985,4.97007-1.87795s3.69973-1.14667,5.76543-1.64282s9.18443-1.98693,15.4652-3.35773c6.28082-1.37064,11.7113-2.59732,16.2994-3.66568c4.58808-1.06848,8.33838-1.97507,11.2639-2.69002c2.92546-.7153,5.0216-1.28084,6.4334-1.67857s7.74823-2.59809,13.48593-5.62631s10.64743-6.74744,14.70827-11.05384s7.26298-9.10788,9.6073-14.28488c2.3445-5.17718,3.84285-10.63666,4.5177-16.32144s.30623-11.71146-1.4594-17.72363c-1.7656-6.01243-4.7633-11.76429-8.8276-17.10599s-9.08552-10.1485-14.94123-14.25116-12.45127-7.3533-19.65912-9.54118c-7.20761-2.18782-16.94415-3.45024-26.41192-3.53456-9.46775-.0842-18.64408.88336-27.51543,2.70886s-17.43434,4.38656-25.6808,7.55453c-8.2464,3.16815-16.17502,6.82932-19.77783,9.38449-7.49424,4.28064-3.44892,2.90216-7.3404,4.62775Z" fill="#242424"/></g><g><path d="M334.56482,466.4999c-2.38412.12217-6.99752,1.6342-11.60288,3.8225-4.60524,2.18822-9.05124,4.86055-12.77276,8.2525-3.72162,3.39202-6.85742,6.9161-9.25534,10.33135s-3.91556,6.52635-4.79486,8.46469-.87934,1.93833-.22721.6864c0,0,1.5019-2.38312,4.07416-4.88964s5.77467-5.23215,9.4711-8.0149s7.6752-5.58563,11.56617-8.61203s7.8844-5.75397,9.73385-7.31297c3.95319-2.3324,1.70405-1.9546,3.80777-2.7279Z" fill="#c49810"/></g><g><path d="M151.96332,317.35287c-1.50574-1.09002-4.87935-2.65137-8.55121-4.04217-3.67188-1.39066-7.6232-2.6377-11.84416-3.73502-4.22098-1.09758-8.70198-2.06678-12.74209-2.68378-4.04013-.61678-7.265985-.82272-10.491876-.84142-3.225959-.01853-6.449114.16058-9.631624.69509s-6.28591,1.46133-10.4902,3.03647-9.339945,4.27793-13.92135,7.76859c-4.5813,3.49067-8.55363,7.76242-11.86558,12.77837s-5.907267,10.76094-7.95378,15.168-2.046546,4.40714-.504443,1.57447c0,0,3.617508-5.34907,7.712343-9.66079s8.22074-7.86783,12.48751-10.64991c4.266856-2.78197,8.67734-4.86789,13.412135-6.26062s7.483565-1.94317,10.259125-2.37915c2.775566-.43573,5.51215-1.02377,8.29111-1.46206c2.77894-.43818,5.60272-.78486,8.42263-.93091s7.30259.00447,11.653935.23677s8.481335.56386,12.408875.93345c3.92755.36935,7.65973.79313,9.54826.73705c3.55594.47926,2.13295-.81755,3.80039-.28243Z" fill="#c49810"/></g><g><path d="M308.76776,428.82703c-.11041-.03498-.3233-.06925-.52478-.10463-.20151-.03527-.39158-.07186-.56991-.1095s-.34501-.07646-.8776-.21947-1.44302-.37483-2.34155-.58386-1.78452-.40063-2.65772-.5751-1.73455-.31833-2.34304-.43274c-.60849-.1142-.99619-.19687-1.36399-.27387s-.71524-.15366-1.04181-.22824c-.3266-.07442-.63263-.14566-1.13316-.26432s-1.23994-.33465-2.11552-.61346-1.88298-.62432-3.01888-1.03878c-1.13588-.41458-2.40388-.88138-3.4946-1.20874s-2.05528-.59436-3.20802-.97217-2.49051-.85413-4.02033-1.40332c-1.52972-.54926-3.2398-1.19126-4.29345-1.58216s-1.47357-.54504-2.29956-.88784-2.02284-.86213-3.59574-1.53195-3.52762-1.47745-5.05856-2.35308-1.53091-.8756-.53427-.25334c0,0,1.92163,1.35954,3.42459,2.65219c1.50299,1.29297,2.72247,2.3049,3.65874,3.04257s1.58937,1.22128,1.94426,1.44461c.35489.22321,2.01044,1.28667,3.5429,2.22904c1.53251.94217,2.92582,1.75525,4.19101,2.4216s2.38929,1.22671,3.37955,1.69653c.99036.46982,2.46555.8181,3.79758,1.10147c1.332.28351,2.54123.50431,3.62582.67603s2.04956.28473,2.87714.34732s1.1477.08484,1.50406.10468c.35628.02.72946.03045,1.11908.03622.38968.00601.79632.00622,1.2302-.00287s1.2975-.05002,2.16183-.08225s1.74737-.08038,2.64794-.1233s1.81977-.09483,2.75923-.1517c.93944-.057,1.12484-.0712,1.31026-.09096s.37931-.04416.58191-.07327.41406-.0629.52301-.09961c.21992-.03833.10242-.49012.21338-.49173Z" fill="#c49810"/></g><g><path d="M326.13165,390.4854c1.32843.07567,3.87605-.1154,6.41101-.24703s5.0705-.16501,7.61136-.1055c2.5409.0597,5.09268.23063,7.6593.5228c2.56672.29211,5.15155.70605,7.74772,1.27988c2.59619.57395,5.51522.86529,8.65408,1.47935s6.40835,1.41307,9.70858,2.28765s6.52793,1.82699,9.58228,2.80352c3.05422.97669,5.83902,1.98749,7.58962,3.00643s1.75065,1.01902.60865.29728c0,0-2.20831-1.57008-4.68859-3.4284-2.48036-1.85818-5.32136-3.65573-8.40848-5.30533s-6.30634-3.15375-9.55451-4.43455c-3.24801-1.28084-6.4309-2.3214-9.45247-2.99773s-5.92314-.84427-8.7526-.86804-5.60285.14734-8.31357.47821c-2.7107.33102-5.35623.81363-7.92688,1.48136s-5.05955,1.51293-6.22278,2.206c-2.39297,1.02626-1.02297,1.21095-2.25272,1.5441Z" fill="#c49810"/></g><g><path d="M88.65379,452.4501c-.2818.9987-.50522,3.2657-.585934,5.86075-.080706,2.59491.044614,5.41507.43161,8.33661.386984,2.92169,1.097174,5.84854,2.224074,8.66034s2.75489,5.40866,5.00228,7.30017c2.24741,1.89166,4.67331,3.35797,7.21141,4.6308s5.153476,2.32498,7.75757,3.18826s5.14588,1.51883,7.53827,1.99112c2.39242.47241,4.56327.79273,5.98189,1.19391c1.418615.40137,1.418615.40137.47639.12238c0,0-1.87392-.59204-3.87946-1.63892s-4.1638-2.23624-6.40348-3.52829-4.504846-2.66-6.68806-4.14288c-2.18318-1.48307-4.24351-3.02201-6.03191-4.63297s-3.20612-3.22275-4.56093-5.06848c-1.354805-1.8456-2.528496-4.08295-3.50255-6.5662s-1.75775-5.08288-2.409315-7.63622-1.191285-4.93898-1.596525-6.02568c-.44651-2.06652-.92403-1.06493-.96533-2.0447Z" fill="#c49810"/></g><g><path d="M138.38649,354.04495c.35939.10925,1.14861.30637,2.04807.66005s1.91375.85793,3.05102,1.50185c1.13725.6438,2.39865,1.432,4.03896,2.60935s3.65185,2.7309,5.65199,4.26272c2.00017,1.53204,3.9695,3.0755,5.91084,4.62723s4.06265,2.8171,5.6854,3.81479s3.04267,2.03579,4.88678,3.61956c1.8441,1.58365,4.08047,3.68787,6.7676,6.24002s5.82453,5.54818,8.09742,8.24295c2.27293,2.69501,2.27293,2.69501.86869.8144c0,0-2.47535-4.01285-4.5233-7.6334s-3.95506-6.64032-5.71402-9.07497-3.32673-4.34776-4.73081-5.73203c-1.40415-1.3844-3.38803-3.00354-5.48931-4.42947-2.10126-1.4258-4.33914-2.664-6.61317-3.85612-2.27404-1.19223-4.57804-2.3468-6.94955-3.45114-2.37156-1.10452-4.05442-1.68344-5.52532-2.10162s-2.79772-.69382-3.97475-.83045-2.19792-.14474-2.66593-.04342c-.84895.11789-.4396.74275-.82061.7597Z" fill="#c49810"/></g></g><g><g transform="matrix(.999938-.011121 0.011121 0.999938-6.083683 7.798039)"><path d="M614.2581,512.9119q1.3533.02676,2.35256.836q1.00158.6966,1.76654,1.95266.7651,1.25594,1.18286,2.95624.30724,1.58545.38664,3.2792.04396,3.49796-1.3758,6.8544t-3.85014,6.46753q-2.3172,3.1131-5.19436,5.98947-2.8746,2.76377-5.6299,5.1914-4.36293,3.86253-9.3981,7.4863-5.0347,3.62367-10.9853,7.90644.49984-2.47214,1.2386-5.61644.62586-3.1463,1.5925-6.3989.8514-3.1418,1.92857-6.2795.96197-3.0271,2.25133-5.48336q5.5242-11.28544,11.6385-18.15948q6.1122-6.76116,12.0955-6.98196Zm137.0063,14.5418q1.8042.03544,3.00916,1.8641q1.20484,1.82875,1.37494,4.6523.17004,2.8237.13244,4.74065-.35514,18.04305-9.46374,33.77045-6.29157,10.142-15.13007,17.86487-8.72343,7.61223-19.41259,11.91433-7.78064,3.0916-12.94704,3.0167-.04295-.00055-.08556-.0015-1.57879-.0311-2.68219-1.2937-.99045-1.26046-1.63155-3.07815-.53056-1.70265-.831-3.62628-.19003-1.80867-.16806-2.93667.0733-3.7211,1.29193-8.3225q1.21643-4.4886,3.23123-9.4125q2.01254-4.81124,4.7061-9.83474q2.69115-4.91096,5.6014-9.47906q2.7951-4.4573,5.80264-8.2337q2.89466-3.77864,5.53943-6.3213q3.10683-3.09766,6.43473-5.96533q3.2131-2.75687,6.75344-4.94347q3.53776-2.07387,7.28366-3.24104q3.573-1.15021,7.44974-1.09396.06506.00094.13016.0022.1492.0031.2985.00515q1.6552.02399,3.3123-.04685Zm123.71235-75.51806q-2.55768-.03704-4.6966,1.03546-2.16475,1.08548-3.89398,2.96927-1.61647,1.88605-2.79303,4.34466-1.06378,2.46097-1.56804,5.1586-.2566,1.57425-.75655,4.04621-.38488,2.36151-.89815,5.5101-.7677,4.6102-1.28074,7.75882-.5108,3.03598-1.1347,6.06954-.62376,3.0336-1.4842,6.6267-.74756,3.59526-1.87341,9.21358-1.74085,8.20122-3.49485,17.07872-1.6391,8.76717-3.0572,17.7641-.9667,6.13435-1.72364,12.2727l-.00666-.0001q-.4496.4887-.8994.9876-1.3843,1.55207-1.9614,2.21766-7.2511,7.30267-14.712,13.81189-7.4583,6.39635-15.0012,11.32435-7.4274,4.81755-14.7026,7.60753-7.1805,2.64307-13.97724,2.54477-.08716-.0013-.17406-.003-4.17256-.0822-7.5134-2.29146-3.2302-2.0943-5.53404-5.41107-2.19086-3.31447-3.35156-7.39847-1.1627-3.9713-1.0873-7.8056.1331-6.7661,1.8384-13.1629q1.5904-6.28587,3.54767-14.0316q1.81343-6.1689,1.88673-9.89025.0266-1.35335-.7161-3.73695t-1.9366-4.7761q-1.0812-2.3904-2.3965-4.33406-1.31556-1.94374-2.3173-2.64034-2.00534-1.2803-4.47293-2.00584-2.46991-.61276-5.05687-1.00201-2.5893-.27655-5.29555-.32965-2.59369-.0511-4.96179-.09766-.04516-.00098-.09039-.00159-4.70441-.0683-10.78647,2.38215-6.1405,2.47375-12.54,6.6347-6.39705,4.04803-12.36775,9.34546-5.96805,5.18469-10.35975,10.5133-4.16185,5.10761-8.57805,11.67639-.00425.0066-.00855.01319l-.0051-.00004-2.74606,2.63993q-7.81904,7.51757-15.73761,14.35597-7.91638,6.7257-17.63946,13.52874-5.26067,3.6192-11.30827,7.11016-5.93276,3.3804-12.3033,6.0754-6.36835,2.5821-12.9421,4.14494-6.44414,1.53192-12.7478,1.44066-.12694-.0019-.2539-.0044-11.5025-.22636-18.0426-6.1085-6.42956-5.767-6.21435-16.7056q8.45135-5.2487,14.52575-10.09286q5.9595-4.73344,10.88843-8.69794q7.79462-6.277,13.31857-11.8087q5.5217-5.41927,9.0089-10.6526q3.37255-5.1229,4.9383-10.16877q1.45085-4.93518,1.3274-10.12693-.13455-4.628-1.9763-8.49996-1.72887-3.86954-4.8153-7.54031-.9905-1.26043-2.66424-2.19583-1.67596-.8227-3.46926-1.42206-1.79307-.5993-3.36747-.8559-1.57428-.25654-2.4765-.27434-3.72577.1522-7.46943,1.20666-3.6306,1.0567-7.1642,2.90499-3.4208,1.85047-6.6272,4.26917-3.0935,2.42096-5.6276,5.07878-13.4981,15.18944-19.3521,31.7705-1.5832,4.5727-2.7562,9.2305l-.0039-.00004q-2.6285,2.5882-5.19224,5.05284-3.44733,3.20394-6.89476,6.4077-3.3325,3.09305-7.0031,6.1794-3.6708,3.0865-7.9077,6.2747-4.23454,3.0755-8.34526,5.5892-4.10854,2.40095-7.74824,3.90864-3.6111,1.49616-5.9703,1.46196-.0187-.0003-.0374-.00066-6.20225-.12204-9.44782-7.18048-3.13492-6.94326-4.43618-21.07026-.54573-6.66656-.7753-12.19897-.11906-5.41723-.36863-9.93493-.25167-4.40436-.9722-7.9157-.61011-3.39644-2.24835-6.1362-.65445-1.14103-1.98762-2.18254-1.2227-.92646-2.90102-1.63636-1.6782-.70995-3.47583-1.0838t-3.48917-.40704q-.01242-.00026-.02488-.00042-2.58688-.03754-6.34554,2.69536-3.77469,2.6331-8.15308,7.28504-4.26346,4.54146-8.78131,10.54432-4.51782,6.00299-8.48067,12.46804-3.965,6.57804-7.23127,12.0416-3.26633,5.46326-5.94883,9.92303-5.24337,8.79773-7.38717,8.76667-.00266,0-.00528-.0001-.33838-.0065-.88889-.6944-.5527-.5748-1.19826-2.16695-.6478-1.47925-1.27336-4.08625-.51284-2.60473-.77344-6.5584-.25842-4.06635-.5079-8.5836-.13675-4.5151-.38632-9.0326-.24951-4.51735-.6185-8.6988-.25842-4.06635-.87293-7.2371-1.21997-6.7927-5.19528-11.1577-3.8649-4.25-9.27777-4.3566-.0562-.0012-.11236-.002-5.46546-.07925-10.5434,2.6125-5.13004,2.7193-9.97284,8.0391-2.42145,2.65984-5.31833,6.5511-2.89691,3.8914-5.91775,8.3445-2.90564,4.3425-5.69864,8.6872-2.68028,4.347-4.89163,7.8006-3.14245,4.9019-6.28049,9.5781-3.02518,4.67856-5.8093,8.57224t-5.09723,6.78131-3.8078,4.32471q.04435-2.25526.45587-5.96996.40934-3.6019,1.5463-9.7843.38718-2.4744,1.2542-6.40566.75203-3.82084,1.74516-8.42657t2.10797-9.66037q1.00201-5.0569,1.88461-9.7775.88254-4.7209,1.52628-8.7694.53101-4.0507.58423-6.75715.05108-2.59369-.35117-5.08345-.29178-2.3749-1.27118-4.19914-.86664-1.82202-2.4231-2.98071-1.44604-1.0437-3.81423-1.0904-.00767-.00025-.01532-.0003-1.34825-.01959-3.16665,1.17865-1.82646,1.09192-3.55128,2.75036-1.6098,1.54774-2.8858,3.32758t-1.64092,3.12636q-.72764,2.5804-1.26527,6.96934-.42483,4.3913-.98029,9.68266-.44036,5.1807-1.00012,10.6975t-1.21914,10.35465q-.79203,5.85058-1.55524,10.23525t-1.28958,8.21q-.52658,3.8254-.94036,7.6528-.29878,3.7168-.38752,8.22757-.05328,2.7063.02618,4.40013-.03326,1.6915.16339,3.16194.19888,1.35773.62115,2.83252.31168,1.35999.9439,3.62884q2.5334,8.8491,11.10387,9.0178.0234.00045.04673.0008q4.5938.0666,7.94027-4.5817q1.50589-2.0011,3.59787-5.1186q1.97918-3.11993,4.19286-6.68634q2.09864-3.45562,4.1973-6.9115t3.73065-6.1314q5.95307-10.14876,11.87742-18.83156q5.92221-8.5698,11.01046-14.8999q4.97553-6.3325,8.9957-9.9762q3.89383-3.52275,5.92322-3.4934.00589.0001.01181.0001q3.27029.0645,5.23089,9.35367q1.8501,9.17437,1.85328,26.2088.21981,17.49029,2.55435,24.98193q2.56219,7.3832,10.34314,7.536.01654.0004.03311.0007q5.17497.075,11.63583-8.2317q6.48151-8.3334,15.93531-24.39234q4.78329-8.0282,9.19729-14.48456q4.30112-6.45825,8.00287-11.1237q3.58691-4.5547,6.34213-6.98226q2.63431-2.42244,4.09946-2.40124.00448.0001.00903.0002.90213.0178,1.65821,1.7248.64331,1.70487,1.26224,4.6502.50836,2.83024.88397,6.6732.37789,3.73035.86181,7.80096.37119,4.06879.85288,8.25214.37114,4.0684.97684,7.69037q1.2974,8.59953,3.2206,14.05218q1.92335,5.45288,4.56766,8.66365q2.53376,3.0957,5.78186,4.28783q3.13528,1.18987,7.08225,1.26752.05249.00085.10493.00175q4.3527.063,9.2925-1.7346q4.9974-1.7066,9.7892-4.4326q4.7919-2.726,9.14143-5.912q4.34943-3.18586,7.67291-5.828q4.12636-3.3032,8.49366-7.3912q4.2523-3.9777,8.0557-8.07677.1279-.13409.2552-.26803l.0038.00015q-.1964,2.82691-.2527,5.68305-.4172,21.2004,9.413,31.8853q9.7171,10.6828,27.76004,11.0379.48156.01594.96566.02296q7.90074.11444,16.44957-2.16206q8.95959-2.4185,18.07663-7.08995q9.1147-4.55865,18.1544-11.03665q8.92467-6.3675,17.30754-13.8737q2.88946-2.58446,5.68456-5.281l.005.00006q-.28.88304-.5438,1.77234-2.2957,7.7388-2.44215,15.18146-.0733,3.72134.96118,8.47984.92157,4.7564,3.09491,8.9731q2.06056,4.21454,5.38596,7.213q3.2145,2.88356,7.8382,2.9746.04763.00094.0955.0017q3.00945.04355,6.8035-.8812q3.7388-.829,7.60414-2.33214q3.75016-1.39276,7.28149-3.1283q3.41867-1.73761,5.93061-3.26752q4.45566-2.84554,8.69696-6.25914q4.24127-3.4138,8.2615-7.0574q3.90714-3.646,7.58914-7.29625q3.67951-3.53755,7.0163-6.85639q1.03446,4.75844,3.66316,8.75867q2.6288,4.00012,6.29485,6.8927q3.66589,2.89247,7.9198,4.55561q4.14361,1.54796,8.31595,1.63012.48983.01584.9762.02289q8.46883.12268,15.87984-2.39865q7.72146-2.5555,14.91669-7.0393q7.19557-4.48356,14.08161-10.4398q6.77099-5.84576,13.88916-12.13604q2.06524-1.76441,4.022-3.7566.7841-.80076,1.52676-1.58196l.00674.0002q-.07076,1.7787-.10494,3.52793-.23761,12.0661,2.51884,21.03247q2.6463,8.8515,7.60555,14.8154q4.84649,5.9614,11.55688,8.91367q6.71067,2.95257,14.49182,3.10573.08785.0016.17585.0029q5.7801.0838,11.8173-1.7977q6.0146-1.79934,11.8301-4.9565q5.703-3.1592,10.96997-7.1168q5.15443-3.9599,9.52398-8.16085q2.87475-2.76355,5.87329-6.08875q2.99653-3.2125,5.76709-6.4298q2.76862-3.1041,5.08393-6.10456q2.20014-2.88984,3.48279-5.00799q4.11645-6.90235,5.72475-11.56285l.00767.00004q.81603,2.27456,1.96513,4.49436q2.0672,3.8764,5.0165,8.78524q2.8388,4.79416,6.55993,10.62066q7.55657,11.5427,7.4834,15.2641-.14633,7.4426-5.86913,11.6168-5.7228,4.1743-17.0884,8.4631-11.5935,4.397-17.0839,8.2375-5.6076,4.06365-5.75166,11.3938-.05114,2.59356,3.75406,4.13506q3.6924,1.53914,6.5117,1.59464.03716.0007.07445.0013q8.22225.1192,22.43985-9.03466q7.19766-4.59634,14.6455-10.42864q7.4451-5.71986,15.6952-12.2134q3.43857-2.7526,8.1352-6.383q4.6968-3.6303,9.73836-7.59227q4.92908-3.96413,9.86274-8.15387q4.8184-4.07916,8.8408-7.83566q4.4819-4.1987,7.8165-7.40463q3.3326-3.09302,5.8623-5.52521q2.4146-2.32136,4.3714-4.31356q1.9551-1.8794,3.6846-3.763q2.189-2.3261,4.3806-4.76475q2.189-2.32599,3.9273-4.66085q1.7378-2.33494,2.7971-4.5702q1.0572-2.1225,1.0925-3.9271.0202-1.0148-.2939-2.2619-.3159-1.1344-.9705-2.2754-.5435-1.02574-1.3198-1.718-.776-.69226-1.6782-.71-.0003,0-.0003,0-.2265-.00326-2.1844,2.10044-1.8445,1.99426-5.7539,5.75293-3.9097,3.75873-8.2813,8.07253-4.3718,4.3135-11.0277,10.04856-6.42827,5.62708-12.84544,10.68988-6.4148,4.9505-11.90521,8.79076-5.37555,3.72975-9.36905,6.0204-3.8644,2.1719-5.44565,2.1489-.00595-.00004-.0116-.0001-1.12775-.0223-1.23165-.4755-1.0899-1.9392-3.2631-6.156-2.1755-4.10415-5.34393-9.35586-3.16803-5.25164-5.56027-9.81124-2.39206-4.5597-4.2335-8.43144-3.45336-7.96476-3.3381-13.82879q1.26486-1.21607,3.3301-2.98041q1.95265-1.7666,4.8186-4.0791q2.98085-2.42322,5.28053-4.63426q2.29743-2.09817,3.9162-4.0969q3.35487-4.22075,3.4436-8.73137.23057-11.72821-9.69317-11.9234-.14506-.00897-.29291-.01117-2.60725-.03772-6.06415,2.02944-3.6532,2.1843-7.2243,5.9497-3.56867,3.65264-6.7092,8.4417-3.0252,4.67865-4.47147,9.3882-2.98363,8.28935-3.13208,15.8449-.04135,2.1003.16915,4.1594l-.00765-.00004q-1.12715.38238-2.41729,1.54964-1.83986,1.7686-3.33926,3.43125-1.84635,2.10715-4.615,5.21135-2.76614,2.9917-6.45914,7.20577-4.61266,5.09869-10.13666,10.63049-5.52166,5.41901-11.7021,9.92284-6.06785,4.5056-12.6682,7.4216-6.5191,2.7699-13.2022,2.673-.08106-.00114-.16223-.00285-6.20234-.12201-10.55134-2.68952-4.23643-2.56533-6.96683-7.13128-2.61764-4.56409-3.7314-11.0163-1.1163-6.33942-.96345-14.12055.14221-7.2169,1.09601-15.5463.95344-8.3293,2.47514-16.8731q1.40926-8.5461,3.1501-16.7469q1.6279-8.20326,3.12073-15.28114.86047-3.59306,2.83787-12.35349q1.9775-8.76037,5.0764-22.91363.6347-3.59757,1.48826-6.85234.73871-3.1441,1.48419-6.62652-2.49371-5.12576-7.90675-5.23218-.03093-.0006-.06175-.00106Z" fill="#1b1b1b"/></g></g><g><g><path d="M169.58653,457.18997c4.53606,1.24359,9.05387,7.59387,12.03894,16.92475c2.14107,6.71418,3.28296,14.1098,3.42562,22.03478.09504,5.25834-.17292,7.62162-1.18792,10.7679-1.45874,4.49837-3.80012,7.52913-8.83511,11.45394-2.35307,1.8302-3.22626,2.66333-3.59326,3.44641-.2662.54321-.27922.72035-.28375,4.60055-.01012,9.13865.49446,21.2352,1.35388,32.2833.36145,4.51227.76091,8.8235,1.68574,17.8871c1.30046,12.7417,1.48755,14.8529,1.7091,20.13664.14738,3.72886.0169,7.55916-.36556,10.50336-.24229,1.83234-.85249,4.9032-1.20757,5.9649-1.14146,3.4619-3.4947,5.44324-6.50311,5.4527-1.85808-.00213-3.29838-.6105-4.67454-2.0022-1.37603-1.37927-2.03134-3.0357-2.57067-6.5123-.51448-3.3249-.5765-4.33615-.55775-9.9225.01991-6.295.08417-7.35694,1.46634-22.37117c1.58697-17.27583,2.02353-23.29213,2.50346-34.25043.22078-5.10613.52742-19.0984.44016-20.5267-.09905-1.7567-.86896-2.7056-3.79893-4.7059-3.0312-2.06354-4.72338-3.4558-5.94775-4.92334-2.43593-2.90954-3.77218-6.10898-4.44947-10.57146-.45171-2.9711-.22776-11.0096.42237-16.0648c1.90003-14.54556,7.20848-25.66263,13.7846-28.90335c1.87188-.92059,3.51493-1.14673,5.14518-.70218Z" fill="#242424"/></g><g><path d="M233.27652,458.5458c.86972,1.96006,1.90826,11.2514,2.56485,22.9054.39641,7.1167.48152,10.12485.47403,16.748.00574,5.89028-.03345,7.11596-.22461,8.43035-.26718,1.85779-.68578,3.26071-1.43338,4.75119-.73477,1.45256-1.20325,2.1347-3.30441,4.7735-1.89855,2.3869-2.6581,3.49876-3.20302,4.72386-.93767,2.0718-1.15486,3.99305-.90622,7.5322.08722,1.1377.57429,6.51054,1.08659,11.9326c1.88564,20.01135,2.34697,25.63635,2.9048,35.1417.50882,8.5702.56978,10.49166.56005,19.02333-.01038,9.23977-.11397,11.23652-.77648,15.87427-.59877,4.13294-1.25793,5.9146-2.7256,7.3793-.45543.45475-1.11326.9845-1.46738,1.16117-3.73092,1.97998-8.24104-.2879-9.62596-4.8396-.30236-.98597-.82966-4.09583-1.10481-6.44727-.26297-2.3264-.35689-8.7343-.17604-12.18506.21941-4.0191.43732-6.57208,1.42159-16.37894c2.01968-20.05733,2.59823-28.71535,2.96943-43.856.18527-7.60966.12657-11.48954-.17531-12.57664-.47866-1.70736-1.17242-2.8584-3.22989-5.31281-2.20892-2.65635-3.609-5.03435-4.51622-7.71495-.88171-2.56706-1.09332-5.7525-.98203-14.72666.083-6.34424.13552-7.94964.54757-14.4715.72061-11.36197,1.98451-22.48337,2.55303-22.33139.41722.11447.64102,3.22403.99528,14.18295.42725,13.24658.73744,18.12613,1.3158,21.0339.30171,1.52946.52853,1.99772.90782,1.9475.96081-.1379,1.43367-4.8897,1.75142-17.5422.39758-16.08956.55243-19.04693,1.08369-19.56432.55666-.55621.80609,2.60432,1.13429,14.19495.38909,13.55053.68735,18.2908,1.36644,21.2366.50269,2.2496,1.38741,2.26357,1.8958.03979.59716-2.6029.80405-6.87492.97055-19.86844.16548-12.37384.30799-15.39486.77574-15.68515.55649-.34057.88138,3.1991,1.37386,14.79004.43077,10.30225.62906,13.68967.94174,16.87549.36227,3.80487.78986,5.56162,1.32051,5.56254.63216.00066,1.03844-1.705,1.38448-5.8123.24341-2.8943.38792-7.8114.52578-17.78353.16417-11.04691.2934-13.6886.67261-13.68787.06328-.00012.22751.2406.35361.544Z" fill="#242424"/></g><g><path d="M279.4296,461.88217c1.18783.27948,2.17218,1.77233,2.9907,4.55426c1.07042,3.56537,1.67147,8.49515,2.16668,17.59659.26032,4.6261.34649,28.78018.1434,40.92678-.16333,10.37675-.21448,10.8697-1.67418,16.3158-.9393,3.5125-1.0159,4.1068-1.01973,7.6206-.00894,7.8115.57306,18.2649,1.48608,26.9365.38795,3.60334.77595,6.71234,1.6788,13.33704c1.45398,10.70726,1.62895,12.40086,1.62427,16.68636.00843,3.7156-.15747,5.24467-.80505,7.9113-.68573,2.75506-1.31934,4.0433-2.57184,5.16656-3.02396,2.71381-8.43303,2.07614-10.64103-1.26331-.82015-1.2268-1.43688-3.67935-1.7997-7.02955-.33774-3.22356-.09256-7.68505.80017-14.47124.16573-1.32726.51007-3.90566.75225-5.75036c1.14716-8.66987,1.87658-16.4551,2.31548-24.7713.2586-5.13184.4962-13.89075.43623-16.93696l-.04739-2.591-.45352-1.32774c-.25205-.7333-1.24829-3.0095-2.21892-5.058-2.42107-5.09674-3.30327-7.3853-4.10863-10.5585-1.06957-4.2484-1.25537-7.62375-.94147-16.9384.7589-22.69976,3.57194-40.39168,7.52338-47.27627c1.27912-2.2228,2.9744-3.42169,4.36402-3.07916Z" fill="#242424"/></g></g></g></g></svg>
