<svg id="efpsP4xthRg1" xmlns="http://www.w3.org/2000/svg" xmlns:xlink="http://www.w3.org/1999/xlink" viewBox="0 0 400 400" shape-rendering="geometricPrecision" text-rendering="geometricPrecision"><g transform="translate(-29.662143-252.583679)"><g><g><g><path d="M170.05385,416.7921c-5.12016-.25057-10.24039-.50093-15.51264-.57726-2.65297-.03848-5.34441-.03294-8.09378.03894-8.21319.21439-16.94287,1.02015-25.91063,3.72507s-18.17356,7.30875-25.91872,16.43549-14.02968,22.77636-10.746284,37.96634c3.082614,14.26095,14.598549,29.88012,37.304104,30.2091c1.479015.02149,3.005535-.02198,4.58031-.13488c25.74966-1.84656,64.39778-22.27048,93.69571-22.1154.19182.00086.38322.00282.57425.00562c28.98459.42011,48.75978,20.89963,62.17427,23.33168.87706.15905,1.72706.2409,2.55334.25286c11.89508.17236,18.90555-14.13614,31.82868-21.2349c13.82077-7.5917,34.4042-6.93692,49.79154-8.43609c15.38726-1.49903,25.57824-5.15157,33.29812-10.94791s12.96872-13.73682,16.55958-20.9856c3.59087-7.24893,5.5237-13.8063,2.1628-23.91122s-12.01553-23.75704-22.16324-31.56021c-10.14749-7.80295-21.78811-9.75607-33.30516-10.27487-1.2966-.05838-2.59175-.09873-3.8952-.11766-10.2744-.14885-21.0712,1.0281-37.27367,5.0794-18.25799,4.56517-43.38028,12.7801-59.41397,15.1824-3.28454.49203-6.18762.74017-8.82561.70196-10.23955-.1485-16.48411-4.61182-25.53224-15.87439-11.37906-14.16417-27.1922-39.08151-47.40711-57.81574-20.21491-18.7344-44.83161-31.28563-65.51805-33.13556-1.565575-.14001-3.108636-.21872-4.62828-.24072-18.55986-.26898-33.62567,7.91757-43.533586,16.16431-10.719214,8.9223-15.401337,17.91524-17.408447,25.71576s-1.339247,14.40898.400613,20.89343s4.5518,12.84463,11.353434,19.28772c6.801656,6.44321,17.592976,12.96933,26.233626,17.38638s15.130575,6.72455,28.53484,10.53733c13.40424,3.81262,33.72284,9.13058,54.0414,14.44862Z" fill="#ffd51f"/></g><g><path d="M140.98427,504.1599c-2.32738.04603-6.59918.46028-10.67754.34126-4.07834-.11932-8.00652-.75519-11.80282-1.82721-3.79624-1.07215-7.45699-2.53177-10.9537-4.32515s-6.82671-3.81676-11.475465-7.4606-9.32299-9.2392-12.109725-15.2515c-2.78676-6.01216-3.82634-12.22706-3.45798-18.37144s2.12821-12.04046,5.33857-17.3284s7.80573-9.69028,12.36094-12.40701s8.37634-4.35665,12.45366-5.72835c4.07734-1.37184,8.33498-2.4505,12.68432-3.20796s8.72592-1.18537,13.06746-1.275s8.63034.12021,11.73663.74478s3.10634.62452,1.07218.05252c0,0-3.95801-1.61134-8.25202-2.81011-4.29399-1.19861-8.85164-1.79633-13.52935-1.88099s-9.383064.30636-14.0181,1.10862c-4.635045.80209-9.1228,1.9978-13.45572,3.59354s-11.22402,5.43517-16.75941,10.98495c-5.535385,5.54989-9.36447,12.33945-11.34506,19.89108s-1.73792,15.48849.7111,23.20404c2.44907,7.71545,7.076754,14.80359,13.84596,20.66577s10.58871,8.02808,14.46957,9.83393c3.88087,1.80573,7.961664,3.2745,12.19694,4.3077c4.23526,1.03308,8.5828,1.56073,12.98379,1.41639s8.77826-1.02912,10.83409-2.10669c4.20338-1.8046,1.93411-1.4372,4.08168-2.16417Z" fill="#242424"/></g><g><path d="M206.4803,440.35434c-.94336-1.36331-3.4209-3.6156-6.27829-5.80081s-6.07217-4.31033-9.60704-6.42123-7.39238-4.19282-11.54939-6.2868c-4.15708-2.09413-8.61838-4.18592-11.79419-5.5675s-5.36757-2.17256-8.41219-3.14418c-3.04461-.9715-6.96953-2.13156-11.77891-3.51792s-10.51515-2.97415-17.12354-4.7533-14.1471-3.64666-19.343885-4.93865c-5.196755-1.29218-7.392571-1.91015-9.510025-2.57475-2.117455-.66478-4.1601-1.36684-6.132706-2.09517-1.972614-.72823-3.879089-1.4729-5.724264-2.22229s-3.6332-1.49402-6.12903-2.56787c-2.49581-1.07404-5.57406-2.52371-8.41359-4.02335-2.83957-1.49945-5.44512-3.04382-7.8231-4.62782s-4.533906-3.20253-6.47497-4.85008-3.673415-3.31965-5.71382-5.64277-4.246136-5.4082-6.00811-8.64065-3.056107-6.5743-3.85541-9.9837-1.084062-6.85785-.82687-10.3199s1.08435-6.92403,2.541106-10.50066s3.468437-7.35254,5.985569-11.11936c2.517101-3.76693,5.551955-7.40814,9.12096-10.785s7.688395-6.38376,12.387565-8.89386s10.01065-4.42245,16.40204-5.69282s13.45334-1.78405,20.49494-1.48565s13.98489,1.34971,20.72871,3.07665c6.74384,1.72676,13.20564,4.0653,19.2814,6.9319c6.07579,2.8667,11.68216,6.19168,16.84594,10.02176c5.16375,3.83026,10.5161,8.7319,16.2801,14.6961c5.76392,5.96402,11.96813,12.80616,18.66805,20.29789c6.69984,7.49163,13.94813,15.45395,21.81633,23.66473c7.86818,8.21094,16.54467,16.35724,24.50872,22.95442s14.6575,10.96022,21.1982,14.22017s12.8561,5.5094,18.84372,6.89473s11.5741,2.00722,16.66663,1.9646c5.09249-.04243,9.60592-.7075,12.67535-1.1677c3.06952-.46006,3.06952-.46006,1.0165-.31434c0,0-4.12603-.19168-8.69985-.80478-4.57382-.61285-9.53525-1.54095-14.81785-2.99634-5.28252-1.45529-10.8295-3.55314-16.56618-6.44156s-11.61912-6.65673-17.58509-11.46356-14.58534-13.00277-22.66098-21.17047c-8.07568-8.16781-15.61264-16.20328-22.62215-23.96701s-13.55488-15.09012-19.72268-21.77646-12.03702-12.57236-17.7182-17.44995c-5.68117-4.87738-11.44382-8.8201-17.72818-12.28203s-13.03625-6.39564-20.16376-8.71937-14.55674-3.96949-22.194295-4.8494c-7.63755-.8797-15.406665-.92023-23.204849-.02859-7.798196.89146-14.435186,2.55871-20.379936,5.02691s-11.19331,5.60585-15.759682,9.24591c-4.566342,3.64024-8.470698,7.6514-11.745293,11.87491s-5.947517,8.53845-8.064545,12.82503-3.664585,8.63478-4.479553,13.07957-.908703,8.8797-.330387,13.23633c.57837,4.35648,1.784306,8.5874,3.561607,12.64194c1.77739,4.05466,4.083413,7.89822,6.84525,11.46451c2.761733,3.56655,4.69654,5.61125,6.790873,7.54665c2.0943,1.93556,4.397454,3.8115,6.912862,5.6256c2.515415,1.81383,5.246428,3.5637,8.197304,5.24642s6.125488,3.29675,9.509614,4.83114c3.38412,1.53418,5.18731,2.29062,7.03728,3.05542c1.85001.7649,3.78916,1.54402,5.81977,2.32306c2.030606.77924,4.15506,1.547,6.37548,2.28858c2.22047.74133,4.53946,1.44531,6.95241,2.09558c2.412974.6501,10.55974,2.6552,17.8024,4.3861c7.24271,1.73102,13.59713,3.18024,19.04305,4.43024c5.44588,1.25013,9.98716,2.28232,13.60485,3.14991s6.29808,1.57391,8.0016,2.06723c1.70361.49307,6.41789,2.20919,10.85873,3.89184s8.59464,3.33258,12.45494,4.97178s7.43902,3.25283,10.74151,4.84942s6.34446,3.17154,7.93817,3.74203c2.8323,1.52848,1.79467.31067,3.03326,1.26859Z" fill="#242424"/></g><g><path d="M272.76437,393.72287c4.35403-.64743,12.52808-3.2504,20.74878-5.7377c8.22068-2.48749,16.54013-4.60013,24.95877-6.17841c8.41864-1.57846,16.93818-2.5123,25.57172-2.62686s17.39336.67682,24.94189,2.18814s13.48007,3.68961,18.86731,6.69716c5.38716,3.00768,10.12229,6.7005,14.06943,10.88377c3.94705,4.18345,7.00343,8.68963,9.05939,13.29725c2.056,4.60745,3.05069,9.13772,3.01892,13.65718-.03162,4.5195-.79978,9.06392-2.22714,13.37965s-3.51859,8.34905-6.28952,12.03888-6.24532,6.98892-10.46522,9.83017-9.2241,5.16077-12.46178,6.25305c-3.23768,1.09255-4.73412,1.5044-7.0568,2.14365-2.32266.6391-5.45767,1.5392-9.42196,2.64212-3.96433,1.10312-8.75632,2.42575-14.37616,3.98438-5.61976,1.5588-12.07193,3.34878-16.74134,4.67068-4.66936,1.32202-6.89116,2.05426-8.94446,2.85042-2.0534.7961-3.9418,1.63853-5.67758,2.49046s-3.32412,1.69864-4.75915,2.5419c-1.435.84338-2.7294,1.64966-5.01114,3.18292s-5.48367,3.9664-8.39363,6.60199c-2.90996,2.63573-5.45522,5.47385-7.56053,8.4863s-3.663,6.19943-4.58359,9.49588-1.09332,6.6427-1.08875,9.11805.00457,2.4753.11063.8394c0,0,.53934-3.2289,1.78256-6.1507s2.87968-5.62285,4.91873-8.1442s4.439-4.88975,7.16562-7.10167c2.72666-2.21163,5.7374-4.25993,8.98343-6.16103s4.40137-2.4937,5.70493-3.14225c1.30357-.64881,2.72409-1.2948,4.25377-1.95045c1.5298-.65575,3.1838-1.28985,4.97007-1.87795s3.69973-1.14667,5.76543-1.64282s9.18443-1.98693,15.4652-3.35773c6.28082-1.37064,11.7113-2.59732,16.2994-3.66568c4.58808-1.06848,8.33838-1.97507,11.2639-2.69002c2.92546-.7153,5.0216-1.28084,6.4334-1.67857s7.74823-2.59809,13.48593-5.62631s10.64743-6.74744,14.70827-11.05384s7.26298-9.10788,9.6073-14.28488c2.3445-5.17718,3.84285-10.63666,4.5177-16.32144s.30623-11.71146-1.4594-17.72363c-1.7656-6.01243-4.7633-11.76429-8.8276-17.10599s-9.08552-10.1485-14.94123-14.25116-12.45127-7.3533-19.65912-9.54118c-7.20761-2.18782-16.94415-3.45024-26.41192-3.53456-9.46775-.0842-18.64408.88336-27.51543,2.70886s-17.43434,4.38656-25.6808,7.55453c-8.2464,3.16815-16.17502,6.82932-19.77783,9.38449-7.49424,4.28064-3.44892,2.90216-7.3404,4.62775Z" fill="#242424"/></g><g><path d="M334.56482,466.4999c-2.38412.12217-6.99752,1.6342-11.60288,3.8225-4.60524,2.18822-9.05124,4.86055-12.77276,8.2525-3.72162,3.39202-6.85742,6.9161-9.25534,10.33135s-3.91556,6.52635-4.79486,8.46469-.87934,1.93833-.22721.6864c0,0,1.5019-2.38312,4.07416-4.88964s5.77467-5.23215,9.4711-8.0149s7.6752-5.58563,11.56617-8.61203s7.8844-5.75397,9.73385-7.31297c3.95319-2.3324,1.70405-1.9546,3.80777-2.7279Z" fill="#c49810"/></g><g><path d="M151.96332,317.35287c-1.50574-1.09002-4.87935-2.65137-8.55121-4.04217-3.67188-1.39066-7.6232-2.6377-11.84416-3.73502-4.22098-1.09758-8.70198-2.06678-12.74209-2.68378-4.04013-.61678-7.265985-.82272-10.491876-.84142-3.225959-.01853-6.449114.16058-9.631624.69509s-6.28591,1.46133-10.4902,3.03647-9.339945,4.27793-13.92135,7.76859c-4.5813,3.49067-8.55363,7.76242-11.86558,12.77837s-5.907267,10.76094-7.95378,15.168-2.046546,4.40714-.504443,1.57447c0,0,3.617508-5.34907,7.712343-9.66079s8.22074-7.86783,12.48751-10.64991c4.266856-2.78197,8.67734-4.86789,13.412135-6.26062s7.483565-1.94317,10.259125-2.37915c2.775566-.43573,5.51215-1.02377,8.29111-1.46206c2.77894-.43818,5.60272-.78486,8.42263-.93091s7.30259.00447,11.653935.23677s8.481335.56386,12.408875.93345c3.92755.36935,7.65973.79313,9.54826.73705c3.55594.47926,2.13295-.81755,3.80039-.28243Z" fill="#c49810"/></g><g><path d="M308.76776,428.82703c-.11041-.03498-.3233-.06925-.52478-.10463-.20151-.03527-.39158-.07186-.56991-.1095s-.34501-.07646-.8776-.21947-1.44302-.37483-2.34155-.58386-1.78452-.40063-2.65772-.5751-1.73455-.31833-2.34304-.43274c-.60849-.1142-.99619-.19687-1.36399-.27387s-.71524-.15366-1.04181-.22824c-.3266-.07442-.63263-.14566-1.13316-.26432s-1.23994-.33465-2.11552-.61346-1.88298-.62432-3.01888-1.03878c-1.13588-.41458-2.40388-.88138-3.4946-1.20874s-2.05528-.59436-3.20802-.97217-2.49051-.85413-4.02033-1.40332c-1.52972-.54926-3.2398-1.19126-4.29345-1.58216s-1.47357-.54504-2.29956-.88784-2.02284-.86213-3.59574-1.53195-3.52762-1.47745-5.05856-2.35308-1.53091-.8756-.53427-.25334c0,0,1.92163,1.35954,3.42459,2.65219c1.50299,1.29297,2.72247,2.3049,3.65874,3.04257s1.58937,1.22128,1.94426,1.44461c.35489.22321,2.01044,1.28667,3.5429,2.22904c1.53251.94217,2.92582,1.75525,4.19101,2.4216s2.38929,1.22671,3.37955,1.69653c.99036.46982,2.46555.8181,3.79758,1.10147c1.332.28351,2.54123.50431,3.62582.67603s2.04956.28473,2.87714.34732s1.1477.08484,1.50406.10468c.35628.02.72946.03045,1.11908.03622.38968.00601.79632.00622,1.2302-.00287s1.2975-.05002,2.16183-.08225s1.74737-.08038,2.64794-.1233s1.81977-.09483,2.75923-.1517c.93944-.057,1.12484-.0712,1.31026-.09096s.37931-.04416.58191-.07327.41406-.0629.52301-.09961c.21992-.03833.10242-.49012.21338-.49173Z" fill="#c49810"/></g><g><path d="M326.13165,390.4854c1.32843.07567,3.87605-.1154,6.41101-.24703s5.0705-.16501,7.61136-.1055c2.5409.0597,5.09268.23063,7.6593.5228c2.56672.29211,5.15155.70605,7.74772,1.27988c2.59619.57395,5.51522.86529,8.65408,1.47935s6.40835,1.41307,9.70858,2.28765s6.52793,1.82699,9.58228,2.80352c3.05422.97669,5.83902,1.98749,7.58962,3.00643s1.75065,1.01902.60865.29728c0,0-2.20831-1.57008-4.68859-3.4284-2.48036-1.85818-5.32136-3.65573-8.40848-5.30533s-6.30634-3.15375-9.55451-4.43455c-3.24801-1.28084-6.4309-2.3214-9.45247-2.99773s-5.92314-.84427-8.7526-.86804-5.60285.14734-8.31357.47821c-2.7107.33102-5.35623.81363-7.92688,1.48136s-5.05955,1.51293-6.22278,2.206c-2.39297,1.02626-1.02297,1.21095-2.25272,1.5441Z" fill="#c49810"/></g><g><path d="M88.65379,452.4501c-.2818.9987-.50522,3.2657-.585934,5.86075-.080706,2.59491.044614,5.41507.43161,8.33661.386984,2.92169,1.097174,5.84854,2.224074,8.66034s2.75489,5.40866,5.00228,7.30017c2.24741,1.89166,4.67331,3.35797,7.21141,4.6308s5.153476,2.32498,7.75757,3.18826s5.14588,1.51883,7.53827,1.99112c2.39242.47241,4.56327.79273,5.98189,1.19391c1.418615.40137,1.418615.40137.47639.12238c0,0-1.87392-.59204-3.87946-1.63892s-4.1638-2.23624-6.40348-3.52829-4.504846-2.66-6.68806-4.14288c-2.18318-1.48307-4.24351-3.02201-6.03191-4.63297s-3.20612-3.22275-4.56093-5.06848c-1.354805-1.8456-2.528496-4.08295-3.50255-6.5662s-1.75775-5.08288-2.409315-7.63622-1.191285-4.93898-1.596525-6.02568c-.44651-2.06652-.92403-1.06493-.96533-2.0447Z" fill="#c49810"/></g><g><path d="M138.38649,354.04495c.35939.10925,1.14861.30637,2.04807.66005s1.91375.85793,3.05102,1.50185c1.13725.6438,2.39865,1.432,4.03896,2.60935s3.65185,2.7309,5.65199,4.26272c2.00017,1.53204,3.9695,3.0755,5.91084,4.62723s4.06265,2.8171,5.6854,3.81479s3.04267,2.03579,4.88678,3.61956c1.8441,1.58365,4.08047,3.68787,6.7676,6.24002s5.82453,5.54818,8.09742,8.24295c2.27293,2.69501,2.27293,2.69501.86869.8144c0,0-2.47535-4.01285-4.5233-7.6334s-3.95506-6.64032-5.71402-9.07497-3.32673-4.34776-4.73081-5.73203c-1.40415-1.3844-3.38803-3.00354-5.48931-4.42947-2.10126-1.4258-4.33914-2.664-6.61317-3.85612-2.27404-1.19223-4.57804-2.3468-6.94955-3.45114-2.37156-1.10452-4.05442-1.68344-5.52532-2.10162s-2.79772-.69382-3.97475-.83045-2.19792-.14474-2.66593-.04342c-.84895.11789-.4396.74275-.82061.7597Z" fill="#c49810"/></g></g><g><g><path d="M169.58653,457.18997c4.53606,1.24359,9.05387,7.59387,12.03894,16.92475c2.14107,6.71418,3.28296,14.1098,3.42562,22.03478.09504,5.25834-.17292,7.62162-1.18792,10.7679-1.45874,4.49837-3.80012,7.52913-8.83511,11.45394-2.35307,1.8302-3.22626,2.66333-3.59326,3.44641-.2662.54321-.27922.72035-.28375,4.60055-.01012,9.13865.49446,21.2352,1.35388,32.2833.36145,4.51227.76091,8.8235,1.68574,17.8871c1.30046,12.7417,1.48755,14.8529,1.7091,20.13664.14738,3.72886.0169,7.55916-.36556,10.50336-.24229,1.83234-.85249,4.9032-1.20757,5.9649-1.14146,3.4619-3.4947,5.44324-6.50311,5.4527-1.85808-.00213-3.29838-.6105-4.67454-2.0022-1.37603-1.37927-2.03134-3.0357-2.57067-6.5123-.51448-3.3249-.5765-4.33615-.55775-9.9225.01991-6.295.08417-7.35694,1.46634-22.37117c1.58697-17.27583,2.02353-23.29213,2.50346-34.25043.22078-5.10613.52742-19.0984.44016-20.5267-.09905-1.7567-.86896-2.7056-3.79893-4.7059-3.0312-2.06354-4.72338-3.4558-5.94775-4.92334-2.43593-2.90954-3.77218-6.10898-4.44947-10.57146-.45171-2.9711-.22776-11.0096.42237-16.0648c1.90003-14.54556,7.20848-25.66263,13.7846-28.90335c1.87188-.92059,3.51493-1.14673,5.14518-.70218Z" fill="#242424"/></g><g><path d="M233.27652,458.5458c.86972,1.96006,1.90826,11.2514,2.56485,22.9054.39641,7.1167.48152,10.12485.47403,16.748.00574,5.89028-.03345,7.11596-.22461,8.43035-.26718,1.85779-.68578,3.26071-1.43338,4.75119-.73477,1.45256-1.20325,2.1347-3.30441,4.7735-1.89855,2.3869-2.6581,3.49876-3.20302,4.72386-.93767,2.0718-1.15486,3.99305-.90622,7.5322.08722,1.1377.57429,6.51054,1.08659,11.9326c1.88564,20.01135,2.34697,25.63635,2.9048,35.1417.50882,8.5702.56978,10.49166.56005,19.02333-.01038,9.23977-.11397,11.23652-.77648,15.87427-.59877,4.13294-1.25793,5.9146-2.7256,7.3793-.45543.45475-1.11326.9845-1.46738,1.16117-3.73092,1.97998-8.24104-.2879-9.62596-4.8396-.30236-.98597-.82966-4.09583-1.10481-6.44727-.26297-2.3264-.35689-8.7343-.17604-12.18506.21941-4.0191.43732-6.57208,1.42159-16.37894c2.01968-20.05733,2.59823-28.71535,2.96943-43.856.18527-7.60966.12657-11.48954-.17531-12.57664-.47866-1.70736-1.17242-2.8584-3.22989-5.31281-2.20892-2.65635-3.609-5.03435-4.51622-7.71495-.88171-2.56706-1.09332-5.7525-.98203-14.72666.083-6.34424.13552-7.94964.54757-14.4715.72061-11.36197,1.98451-22.48337,2.55303-22.33139.41722.11447.64102,3.22403.99528,14.18295.42725,13.24658.73744,18.12613,1.3158,21.0339.30171,1.52946.52853,1.99772.90782,1.9475.96081-.1379,1.43367-4.8897,1.75142-17.5422.39758-16.08956.55243-19.04693,1.08369-19.56432.55666-.55621.80609,2.60432,1.13429,14.19495.38909,13.55053.68735,18.2908,1.36644,21.2366.50269,2.2496,1.38741,2.26357,1.8958.03979.59716-2.6029.80405-6.87492.97055-19.86844.16548-12.37384.30799-15.39486.77574-15.68515.55649-.34057.88138,3.1991,1.37386,14.79004.43077,10.30225.62906,13.68967.94174,16.87549.36227,3.80487.78986,5.56162,1.32051,5.56254.63216.00066,1.03844-1.705,1.38448-5.8123.24341-2.8943.38792-7.8114.52578-17.78353.16417-11.04691.2934-13.6886.67261-13.68787.06328-.00012.22751.2406.35361.544Z" fill="#242424"/></g><g><path d="M279.4296,461.88217c1.18783.27948,2.17218,1.77233,2.9907,4.55426c1.07042,3.56537,1.67147,8.49515,2.16668,17.59659.26032,4.6261.34649,28.78018.1434,40.92678-.16333,10.37675-.21448,10.8697-1.67418,16.3158-.9393,3.5125-1.0159,4.1068-1.01973,7.6206-.00894,7.8115.57306,18.2649,1.48608,26.9365.38795,3.60334.77595,6.71234,1.6788,13.33704c1.45398,10.70726,1.62895,12.40086,1.62427,16.68636.00843,3.7156-.15747,5.24467-.80505,7.9113-.68573,2.75506-1.31934,4.0433-2.57184,5.16656-3.02396,2.71381-8.43303,2.07614-10.64103-1.26331-.82015-1.2268-1.43688-3.67935-1.7997-7.02955-.33774-3.22356-.09256-7.68505.80017-14.47124.16573-1.32726.51007-3.90566.75225-5.75036c1.14716-8.66987,1.87658-16.4551,2.31548-24.7713.2586-5.13184.4962-13.89075.43623-16.93696l-.04739-2.591-.45352-1.32774c-.25205-.7333-1.24829-3.0095-2.21892-5.058-2.42107-5.09674-3.30327-7.3853-4.10863-10.5585-1.06957-4.2484-1.25537-7.62375-.94147-16.9384.7589-22.69976,3.57194-40.39168,7.52338-47.27627c1.27912-2.2228,2.9744-3.42169,4.36402-3.07916Z" fill="#242424"/></g></g></g></g></svg>
