<svg width="44" height="44" fill="none" xmlns="http://www.w3.org/2000/svg"><path d="M22 38.319c-.403 0-.825-.056-1.137-.166-5.316-1.814-17.196-9.386-17.196-22.22a10.2 10.2 0 012.493-6.71m33.238 12.78c.587-1.87.935-3.886.935-6.068 0-5.665-4.565-10.248-10.193-10.248-3.337 0-6.288 1.613-8.14 4.107a10.138 10.138 0 00-8.14-4.107" stroke="#F3F3F3" stroke-width="3" stroke-linecap="round" stroke-linejoin="round"/><path d="M34.283 29.792a5.84 5.84 0 004.07 4.07" stroke="#F3F3F3" stroke-width="2.3" stroke-miterlimit="10" stroke-linecap="round" stroke-linejoin="round"/><path d="M35.218 28.858l-6.49 6.49a2.26 2.26 0 00-.55 1.082l-.348 2.475c-.128.898.495 1.522 1.393 1.393l2.475-.348c.349-.055.844-.293 1.082-.55l6.49-6.49c1.118-1.118 1.65-2.42 0-4.07-1.632-1.631-2.933-1.1-4.052.018z" stroke="#252525" stroke-width="2.3" stroke-miterlimit="10" stroke-linecap="round" stroke-linejoin="round"/></svg>