<svg width="44" height="44" fill="none" xmlns="http://www.w3.org/2000/svg"><path d="M30.14 5.687A10.173 10.173 0 0022 9.775a10.172 10.172 0 00-8.14-4.088c-5.628 0-10.193 4.583-10.193 10.248 0 2.182.348 4.199.953 6.069 2.897 9.166 11.825 14.648 16.243 16.151.624.22 1.65.22 2.274 0 4.418-1.503 13.346-6.985 16.243-16.151a19.58 19.58 0 00.953-6.069c0-5.665-4.565-10.248-10.193-10.248zm-2.933 15.18l-6.49 6.49a2.259 2.259 0 01-1.082.55l-2.475.33c-.898.128-1.522-.495-1.393-1.393l.348-2.475c.055-.349.293-.844.55-1.082l6.49-6.49c1.118-1.118 2.42-1.65 4.07 0 1.632 1.65 1.1 2.952-.018 4.07z" fill="#F3F3F3"/></svg>