<svg width="44" height="44" viewBox="0 0 44 44" fill="none" xmlns="http://www.w3.org/2000/svg">
<path d="M22 38.3185C21.5967 38.3185 21.175 38.2635 20.8633 38.1535C15.5467 36.3385 3.66666 28.7668 3.66666 15.9335C3.66666 13.3668 4.60166 11.0202 6.15999 9.22351M39.3983 22.0037C39.985 20.1337 40.3333 18.117 40.3333 15.9353C40.3333 10.2703 35.7683 5.68701 30.14 5.68701C26.8033 5.68701 23.8517 7.30035 22 9.79368C21.0581 8.52112 19.8312 7.48684 18.4177 6.77371C17.0041 6.06057 15.4432 5.6884 13.86 5.68701" stroke="#F3F3F3" stroke-width="3" stroke-linecap="round" stroke-linejoin="round"/>
<path d="M34.2833 29.7917C34.8333 31.7717 36.3733 33.3117 38.3533 33.8617" stroke="#F3F3F3" stroke-width="2.3" stroke-miterlimit="10" stroke-linecap="round" stroke-linejoin="round"/>
<path d="M35.2183 28.8585L28.7283 35.3485C28.4717 35.6052 28.2333 36.0818 28.1783 36.4302L27.83 38.9052C27.7017 39.8035 28.325 40.4268 29.2233 40.2985L31.6983 39.9502C32.0467 39.8952 32.5417 39.6568 32.78 39.4002L39.27 32.9102C40.3883 31.7918 40.92 30.4902 39.27 28.8402C37.6383 27.2085 36.3367 27.7402 35.2183 28.8585Z" stroke="#252525" stroke-width="2.3" stroke-miterlimit="10" stroke-linecap="round" stroke-linejoin="round"/>
</svg>
