<svg width="44" height="44" viewBox="0 0 44 44" fill="none" xmlns="http://www.w3.org/2000/svg">
<path d="M30.14 5.68701C26.8217 5.68701 23.8517 7.30034 22 9.77534C21.0543 8.50817 19.8262 7.47889 18.4132 6.76922C17.0002 6.05954 15.4412 5.689 13.86 5.68701C8.23169 5.68701 3.66669 10.2703 3.66669 15.9353C3.66669 18.117 4.01502 20.1337 4.62002 22.0037C7.51669 31.1703 16.445 36.652 20.8634 38.1553C21.4867 38.3753 22.5134 38.3753 23.1367 38.1553C27.555 36.652 36.4834 31.1703 39.38 22.0037C39.985 20.1337 40.3334 18.117 40.3334 15.9353C40.3334 10.2703 35.7684 5.68701 30.14 5.68701V5.68701ZM27.2067 20.867L20.7167 27.357C20.46 27.6137 19.9834 27.852 19.635 27.907L17.16 28.237C16.2617 28.3653 15.6384 27.742 15.7667 26.8437L16.115 24.3687C16.17 24.0203 16.4084 23.5253 16.665 23.287L23.155 16.797C24.2734 15.6787 25.575 15.147 27.225 16.797C28.8567 18.447 28.325 19.7487 27.2067 20.867V20.867Z" fill="#F3F3F3"/>
</svg>
